#N canvas 468 79 1361 877 12;
#N canvas 104 23 1816 749 mobmuplat 0;
#X obj 341 438 send toGUI;
#X obj 339 44 receive fromGUI;
#X obj 338 78 route list;
#X obj 963 50 receive fromNetwork;
#X obj 963 82 route list;
#X obj 969 425 send toNetwork;
#X obj 688 82 route list;
#X obj 688 50 receive fromSystem;
#X obj 112 46 adc~;
#X obj 111 429 dac~;
#X text 111 235 audio in/out here;
#X text 339 237 gui elements in/out here;
#X floatatom 340 372 5 0 0 0 - - -;
#X text 340 155 values from changed gui elements come out here;
#X obj 674 367 tgl 15 0 empty empty empty 17 7 0 10 -262144 -1 -1 0
1;
#X obj 675 462 send toSystem;
#X text 699 364 turn iphone camera flash on/off;
#X text 375 371 move a slider called "tickIndexSlider";
#X msg 341 404 list /tickIndexSlider \$1;
#X msg 675 387 list /flash \$1;
#X obj 689 106 route /tilts /shake;
#X obj 147 576 notein;
#X msg 969 378 list /valueToNetwork 0.5 2 stuff;
#X obj 964 106 route /valueToNetwork /somethingElse;
#X text 144 548 oh \, and MIDI goes in and out through normal PureData
midi objects...;
#X msg 703 432 list /setPage 2;
#X text 705 411 scroll interface to third page;
#X text 952 234 UDP network data in/out here. Do NOT use [netsend]/[netreceive].
The network address is multicast by default \, and can be set to a
specific IP address in the app network settings. The port is specified
by the patch \, but can be overriden in the app network settings.;
#X text 663 242 device hardware connections in/out here;
#X obj 1286 431 send toNetwork;
#X msg 1285 386 list /send /allButMe /valueToNetwork foo bar;
#X text 1284 328 use the "/send" command to send messages via an enabled
networking protocol ("Ping and Connect" or "LANdini"). MEssages will
be received via normal UDP receive (via "receive fromNetwork").;
#X obj 572 191 tgl 15 0 empty empty empty 17 7 0 10 -262144 -1 -1 0
1;
#X msg 853 583 record \$1;
#X obj 857 667 outlet;
#X msg 772 585 air \$1;
#X msg 1194 581 shake \$1;
#X msg 944 586 slider \$1;
#X obj 336 106 route /air /record /slider;
#X obj 77 309 list prepend /tiltUI;
#X obj 285 294 list prepend /shakeUI;
#X msg 1070 583 tilts \$1 \$2;
#X connect 1 0 2 0;
#X connect 2 0 38 0;
#X connect 3 0 4 0;
#X connect 4 0 23 0;
#X connect 6 0 20 0;
#X connect 7 0 6 0;
#X connect 12 0 18 0;
#X connect 14 0 19 0;
#X connect 18 0 0 0;
#X connect 19 0 15 0;
#X connect 20 0 41 0;
#X connect 20 0 39 0;
#X connect 20 1 36 0;
#X connect 20 1 40 0;
#X connect 22 0 5 0;
#X connect 25 0 15 0;
#X connect 30 0 29 0;
#X connect 33 0 34 0;
#X connect 35 0 34 0;
#X connect 36 0 34 0;
#X connect 37 0 34 0;
#X connect 38 0 35 0;
#X connect 38 1 33 0;
#X connect 38 2 37 0;
#X connect 39 0 0 0;
#X connect 40 0 0 0;
#X connect 41 0 34 0;
#X restore 502 96 pd mobmuplat;
#X floatatom 567 212 5 0 0 0 - - -;
#X floatatom 461 214 5 0 0 0 - - -;
#X obj 163 67 adc~;
#X obj 168 140 +~;
#X msg 377 271 record \$1;
#X floatatom 169 429 5 0 0 0 - - -;
#X floatatom 674 424 5 0 0 0 - - -;
#X text 817 405 recording length in msec;
#X text 625 668 recording length in samples;
#X obj 596 587 line~;
#X obj 596 502 *;
#X msg 594 551 \$1 10;
#X obj 597 672 *~;
#N canvas 0 23 688 592 length 0;
#X obj 337 90 inlet;
#X obj 329 270 * 44.1;
#X floatatom 334 327 5 0 0 0 - - -;
#X obj 239 219 / 1000;
#X obj 241 250 t b f;
#X msg 219 291 1;
#X obj 270 330 /;
#X obj 353 471 outlet;
#X obj 230 473 outlet;
#X connect 0 0 1 0;
#X connect 0 0 3 0;
#X connect 1 0 2 0;
#X connect 2 0 7 0;
#X connect 3 0 4 0;
#X connect 4 0 5 0;
#X connect 4 1 6 1;
#X connect 5 0 6 0;
#X connect 6 0 8 0;
#X restore 674 457 pd length;
#X text 628 499 phasor frequency for normal speed playback;
#X obj 593 311 tgl 15 0 empty empty empty 17 7 0 10 -262144 -1 -1 1
1;
#X obj 597 630 phasor~ 1;
#X obj 709 231 loadbang;
#X msg 713 282 1;
#X text 472 502 playback speed;
#X obj 596 787 *~;
#X obj 862 711 line~;
#X msg 860 675 \$1 10;
#X obj 595 845 *~;
#X obj 472 776 line~;
#X msg 470 740 \$1 10;
#X obj 469 335 == 0;
#X obj 506 833 dac~;
#X obj 170 352 ali.sample-recorder my-buffer;
#X obj 430 468 tgl 15 0 empty empty empty 17 7 0 10 -262144 -1 -1 1
1;
#X floatatom 748 563 5 0 0 0 - - -;
#X floatatom 704 589 5 0 0 0 - - -;
#X floatatom 315 672 5 0 0 0 - - -;
#X obj 322 618 snapshot~ 22;
#X obj 294 534 metro 100;
#X obj 309 477 tgl 15 0 empty empty empty 17 7 0 10 -262144 -1 -1 0
1;
#X obj 598 715 tabread4~ my-buffer;
#X obj 501 154 route record air tilts;
#X obj 856 208 unpack 1 1;
#X obj 863 284 ali.scale -1 1 -2 2;
#X connect 0 0 38 0;
#X connect 1 0 23 0;
#X connect 2 0 5 0;
#X connect 2 0 27 0;
#X connect 3 0 4 0;
#X connect 3 1 4 1;
#X connect 4 0 29 0;
#X connect 5 0 29 1;
#X connect 7 0 14 0;
#X connect 10 0 17 0;
#X connect 11 0 12 0;
#X connect 12 0 10 0;
#X connect 13 0 37 0;
#X connect 14 0 11 1;
#X connect 14 0 32 0;
#X connect 14 1 13 1;
#X connect 14 1 31 0;
#X connect 16 0 11 0;
#X connect 17 0 13 0;
#X connect 17 0 34 0;
#X connect 18 0 19 0;
#X connect 19 0 16 0;
#X connect 21 0 24 0;
#X connect 22 0 21 1;
#X connect 23 0 22 0;
#X connect 24 0 28 0;
#X connect 24 0 28 1;
#X connect 25 0 24 1;
#X connect 26 0 25 0;
#X connect 27 0 26 0;
#X connect 27 0 30 0;
#X connect 29 0 6 0;
#X connect 29 0 7 0;
#X connect 34 0 33 0;
#X connect 35 0 34 0;
#X connect 36 0 35 0;
#X connect 37 0 21 0;
#X connect 38 0 2 0;
#X connect 38 1 1 0;
#X connect 38 2 39 0;
#X connect 39 0 40 0;
#X connect 40 0 11 0;
