#N canvas 488 273 1332 881 12;
#X obj 84 48 ctlin;
#X floatatom 76 103 5 0 0 0 - - -;
#X floatatom 134 103 5 0 0 0 - - -;
#X obj 87 153 bng 15 250 50 0 empty empty empty 17 7 0 10 -262144 -1
-1;
#X floatatom 219 476 5 0 0 0 - - -;
#X obj 767 367 ali.sample-recorder my-buffer;
#X msg 967 331 record \$1;
#X obj 967 299 tgl 15 0 empty empty empty 17 7 0 10 -262144 -1 -1 0
1;
#X floatatom 768 404 5 0 0 0 - - -;
#X text 817 405 recording length in msec;
#X obj 969 260 change;
#X msg 970 193 1;
#X obj 886 192 del 200;
#X msg 886 230 0;
#X msg 985 140 stop;
#X obj 370 443 tgl 15 0 empty empty empty 17 7 0 10 -262144 -1 -1 0
1;
#X floatatom 219 621 5 0 0 0 - - -;
#X obj 218 586 ali.slide 0.1 0.1;
#X text 625 668 recording length in samples;
#X obj 597 630 phasor~;
#X obj 596 587 line~;
#X obj 596 502 *;
#X obj 763 330 adc~;
#X msg 594 551 \$1 10;
#X obj 597 672 *~;
#X obj 585 828 dac~;
#X obj 356 298 loadbang;
#X msg 354 347 1;
#X obj 218 660 / 4;
#X msg 1044 192 0;
#X obj 930 107 t b b b b b;
#X msg 444 304 1;
#X obj 442 330 change;
#X msg 1090 196 0;
#X obj 441 264 t b b;
#X msg 594 356 0;
#X msg 491 408 1;
#X obj 218 542 ali.derive 50;
#N canvas 0 23 688 592 length 0;
#X obj 337 90 inlet;
#X obj 329 270 * 44.1;
#X floatatom 334 327 5 0 0 0 - - -;
#X obj 239 219 / 1000;
#X obj 241 250 t b f;
#X msg 219 291 1;
#X obj 270 330 /;
#X obj 353 471 outlet;
#X obj 230 473 outlet;
#X connect 0 0 1 0;
#X connect 0 0 3 0;
#X connect 1 0 2 0;
#X connect 2 0 7 0;
#X connect 3 0 4 0;
#X connect 4 0 5 0;
#X connect 4 1 6 1;
#X connect 5 0 6 0;
#X connect 6 0 8 0;
#X restore 674 457 pd length;
#X text 628 499 phasor frequency for normal speed playback;
#X floatatom 286 655 5 0 0 0 - - -;
#X text 286 633 turn-rate modifier;
#X text 444 232 clockwise;
#X text 1018 108 counter-clockwise;
#N canvas 0 23 773 604 counter 0;
#X obj 568 390 +;
#X obj 572 436 t f f;
#X msg 544 327 -1;
#X msg 456 329 1;
#X obj 530 224 inlet;
#X obj 480 207 inlet;
#X obj 583 495 outlet;
#X connect 0 0 1 0;
#X connect 1 0 6 0;
#X connect 1 1 0 1;
#X connect 2 0 0 0;
#X connect 3 0 0 0;
#X connect 4 0 2 0;
#X connect 5 0 3 0;
#X restore 205 355 pd counter;
#X text 625 358 stop playback;
#X text 393 440 stop/start speed calc;
#X text 222 688 playback speed;
#X obj 541 24 sel 1 127;
#X obj 598 715 tabread4~ my-buffer;
#N canvas 104 23 1816 749 mobmuplat 0;
#X obj 341 438 send toGUI;
#X obj 339 44 receive fromGUI;
#X obj 338 78 route list;
#X obj 963 50 receive fromNetwork;
#X obj 963 82 route list;
#X obj 969 425 send toNetwork;
#X obj 688 82 route list;
#X obj 688 50 receive fromSystem;
#X obj 112 46 adc~;
#X obj 111 429 dac~;
#X text 111 235 audio in/out here;
#X text 339 237 gui elements in/out here;
#X floatatom 340 372 5 0 0 0 - - -;
#X text 340 155 values from changed gui elements come out here;
#X obj 674 367 tgl 15 0 empty empty empty 17 7 0 10 -262144 -1 -1 0
1;
#X obj 675 462 send toSystem;
#X text 699 364 turn iphone camera flash on/off;
#X text 375 371 move a slider called "tickIndexSlider";
#X msg 341 404 list /tickIndexSlider \$1;
#X msg 675 387 list /flash \$1;
#X obj 147 576 notein;
#X msg 969 378 list /valueToNetwork 0.5 2 stuff;
#X obj 964 106 route /valueToNetwork /somethingElse;
#X text 144 548 oh \, and MIDI goes in and out through normal PureData
midi objects...;
#X msg 703 432 list /setPage 2;
#X text 705 411 scroll interface to third page;
#X text 952 234 UDP network data in/out here. Do NOT use [netsend]/[netreceive].
The network address is multicast by default \, and can be set to a
specific IP address in the app network settings. The port is specified
by the patch \, but can be overriden in the app network settings.;
#X text 663 242 device hardware connections in/out here;
#X obj 1286 431 send toNetwork;
#X msg 1285 386 list /send /allButMe /valueToNetwork foo bar;
#X text 1284 328 use the "/send" command to send messages via an enabled
networking protocol ("Ping and Connect" or "LANdini"). MEssages will
be received via normal UDP receive (via "receive fromNetwork").;
#X obj 572 191 tgl 15 0 empty empty empty 17 7 0 10 -262144 -1 -1 0
1;
#X obj 857 667 outlet;
#X obj 694 188 bng 15 250 50 0 empty empty empty 17 7 0 10 -262144
-1 -1;
#X obj 689 106 route /tilts /shake;
#X obj 336 106 route /xy /volume;
#X msg 772 585 xy \$1 \$2;
#X msg 853 583 volume \$1;
#X connect 1 0 2 0;
#X connect 2 0 35 0;
#X connect 3 0 4 0;
#X connect 4 0 22 0;
#X connect 6 0 34 0;
#X connect 7 0 6 0;
#X connect 12 0 18 0;
#X connect 14 0 19 0;
#X connect 18 0 0 0;
#X connect 19 0 15 0;
#X connect 21 0 5 0;
#X connect 24 0 15 0;
#X connect 29 0 28 0;
#X connect 34 0 33 0;
#X connect 35 0 36 0;
#X connect 35 1 37 0;
#X connect 36 0 32 0;
#X connect 37 0 32 0;
#X restore 1186 42 pd mobmuplat;
#X obj 1185 100 route xy volume;
#X obj 875 684 line~;
#X msg 873 648 \$1 10;
#X obj 599 790 *~;
#N canvas 248 93 1448 1039 xy-to-knob 0;
#X obj 563 19 inlet;
#X obj 563 57 unpack 1 1;
#X obj 489 155 ali.scale 0 1 -1 1;
#X obj 647 153 ali.scale 0 1 -1 1;
#X obj 334 702 atan;
#X obj 376 601 float;
#X obj 334 660 /;
#X obj 301 554 t b f;
#X floatatom 679 90 5 0 0 0 - - -;
#X floatatom 517 56 5 0 0 0 - - -;
#X obj 143 282 moses 0;
#X obj 215 323 t f b;
#X obj 73 333 t f b;
#X obj 461 822 +;
#X obj 357 280 moses 0;
#X obj 497 331 t f b;
#X obj 358 333 t f b;
#X obj 588 506 +;
#X obj 590 553 sel 5 6 10 9;
#X msg 282 362 1;
#X msg 164 363 2;
#X msg 564 370 4;
#X msg 449 363 8;
#X msg 612 606 3.1415;
#X msg 546 607 0;
#X msg 675 607 3.1415;
#X msg 777 605 6.283;
#X floatatom 462 852 5 0 0 0 - - -;
#X obj 837 984 outlet;
#X obj 942 652 >;
#X obj 910 606 t f f;
#X obj 1036 683 sel 0 1;
#X msg 1028 726 1;
#X msg 1093 727 127;
#X obj 714 935 spigot;
#X obj 589 868 > 0.1;
#X obj 713 979 spigot;
#X obj 590 927 < 6.27;
#X connect 0 0 1 0;
#X connect 1 0 2 0;
#X connect 1 0 9 0;
#X connect 1 1 8 0;
#X connect 1 1 3 0;
#X connect 2 0 10 0;
#X connect 3 0 14 0;
#X connect 4 0 13 0;
#X connect 5 0 6 0;
#X connect 6 0 4 0;
#X connect 7 0 5 0;
#X connect 7 1 6 1;
#X connect 10 0 12 0;
#X connect 10 1 11 0;
#X connect 11 0 7 0;
#X connect 11 1 19 0;
#X connect 12 0 7 0;
#X connect 12 1 20 0;
#X connect 13 0 27 0;
#X connect 14 0 16 0;
#X connect 14 1 15 0;
#X connect 15 0 5 1;
#X connect 15 1 21 0;
#X connect 16 0 5 1;
#X connect 16 1 22 0;
#X connect 17 0 18 0;
#X connect 18 0 24 0;
#X connect 18 1 23 0;
#X connect 18 2 25 0;
#X connect 18 3 26 0;
#X connect 19 0 17 0;
#X connect 20 0 17 0;
#X connect 21 0 17 1;
#X connect 22 0 17 1;
#X connect 23 0 13 1;
#X connect 24 0 13 1;
#X connect 25 0 13 1;
#X connect 26 0 13 1;
#X connect 27 0 30 0;
#X connect 27 0 35 0;
#X connect 27 0 37 0;
#X connect 29 0 31 0;
#X connect 30 0 29 1;
#X connect 30 1 29 0;
#X connect 31 0 32 0;
#X connect 31 1 33 0;
#X connect 32 0 34 0;
#X connect 33 0 34 0;
#X connect 34 0 36 0;
#X connect 35 0 34 1;
#X connect 36 0 28 0;
#X connect 37 0 36 1;
#X restore 1187 339 pd xy-to-knob;
#X floatatom 1203 402 5 0 0 0 - - -;
#X floatatom 251 746 5 0 0 0 - - -;
#X connect 0 0 1 0;
#X connect 0 1 2 0;
#X connect 1 0 3 0;
#X connect 1 0 48 0;
#X connect 4 0 37 0;
#X connect 5 0 8 0;
#X connect 6 0 5 1;
#X connect 7 0 6 0;
#X connect 8 0 38 0;
#X connect 10 0 7 0;
#X connect 11 0 10 0;
#X connect 12 0 13 0;
#X connect 13 0 10 0;
#X connect 14 0 12 0;
#X connect 15 0 37 1;
#X connect 16 0 28 0;
#X connect 17 0 16 0;
#X connect 19 0 24 0;
#X connect 20 0 19 0;
#X connect 21 0 23 0;
#X connect 22 0 5 0;
#X connect 23 0 20 0;
#X connect 24 0 49 0;
#X connect 26 0 27 0;
#X connect 27 0 15 0;
#X connect 28 0 21 0;
#X connect 28 0 57 0;
#X connect 29 0 35 0;
#X connect 30 0 12 0;
#X connect 30 1 11 0;
#X connect 30 2 14 0;
#X connect 30 3 29 0;
#X connect 30 4 33 0;
#X connect 31 0 32 0;
#X connect 32 0 15 0;
#X connect 32 0 36 0;
#X connect 33 0 32 0;
#X connect 34 0 31 0;
#X connect 35 0 21 0;
#X connect 36 0 17 3;
#X connect 37 0 17 0;
#X connect 38 0 21 1;
#X connect 38 1 24 1;
#X connect 40 0 28 1;
#X connect 44 0 4 0;
#X connect 48 0 44 0;
#X connect 48 0 34 0;
#X connect 48 1 44 1;
#X connect 48 1 30 0;
#X connect 49 0 54 0;
#X connect 50 0 51 0;
#X connect 51 0 55 0;
#X connect 51 1 53 0;
#X connect 52 0 54 1;
#X connect 53 0 52 0;
#X connect 54 0 25 0;
#X connect 54 0 25 1;
#X connect 55 0 48 0;
#X connect 55 0 56 0;
