#N canvas 108 25 1572 881 12;
#X obj 1042 375 ali.sample-recorder my-buffer;
#X msg 1242 339 record \$1;
#X obj 1242 307 tgl 15 0 empty empty empty 17 7 0 10 -262144 -1 -1
0 1;
#X floatatom 1043 412 5 0 0 0 - - -;
#X text 1092 413 recording length in msec;
#X obj 1244 268 change;
#X msg 1245 201 1;
#X obj 1161 200 del 200;
#X msg 1161 238 0;
#X msg 1251 160 stop;
#X obj 645 451 tgl 15 0 empty empty empty 17 7 0 10 -262144 -1 -1 1
1;
#X floatatom 494 629 5 0 0 0 - - -;
#X obj 493 594 ali.slide 0.1 0.1;
#X obj 873 723 tabread~ my-buffer;
#X text 900 676 recording length in samples;
#X obj 872 638 phasor~;
#X obj 871 595 line~;
#X obj 871 510 *;
#X obj 1038 338 adc~;
#X msg 869 559 \$1 10;
#X obj 872 680 *~;
#X obj 860 836 dac~;
#X msg 936 771 0;
#X msg 981 770 0.1;
#X obj 631 306 loadbang;
#X msg 629 355 1;
#X obj 493 668 / 4;
#X msg 1319 200 0;
#X obj 1205 115 t b b b b b;
#X msg 719 312 1;
#X obj 717 338 change;
#X msg 1365 204 0;
#X obj 716 272 t b b;
#X msg 869 364 0;
#X msg 766 416 1;
#N canvas 0 23 688 592 length 0;
#X obj 337 90 inlet;
#X obj 329 270 * 44.1;
#X floatatom 334 327 5 0 0 0 - - -;
#X obj 239 219 / 1000;
#X obj 241 250 t b f;
#X msg 219 291 1;
#X obj 270 330 /;
#X obj 353 471 outlet;
#X obj 230 473 outlet;
#X connect 0 0 1 0;
#X connect 0 0 3 0;
#X connect 1 0 2 0;
#X connect 2 0 7 0;
#X connect 3 0 4 0;
#X connect 4 0 5 0;
#X connect 4 1 6 1;
#X connect 5 0 6 0;
#X connect 6 0 8 0;
#X restore 949 465 pd length;
#X text 903 507 phasor frequency for normal speed playback;
#X floatatom 561 663 5 0 0 0 - - -;
#X text 561 641 turn-rate modifier;
#X text 719 240 clockwise;
#X text 1293 116 counter-clockwise;
#X text 900 366 stop playback;
#X text 668 448 stop/start speed calc;
#X text 497 696 playback speed;
#X obj 670 156 sel 1 127;
#X msg 401 132 listen 0;
#X msg 425 161 listen 8000;
#X obj 401 210 oscparse;
#X obj 401 189 netreceive -u -b;
#X obj 716 821 print;
#N canvas 514 160 1102 693 acc-data 0;
#X obj 127 248 unpack 1 1 1;
#X obj 96 286 ali.scale -1 1 0 127;
#X obj 157 447 vsl 15 128 0 127 0 0 empty empty empty 0 -9 0 10 -262144
-1 -1 6338 1;
#X obj 174 312 ali.scale -1 1 0 127;
#X obj 179 446 vsl 15 128 0 127 0 0 empty empty empty 0 -9 0 10 -262144
-1 -1 47 1;
#X obj 227 350 ali.scale -1 1 0 127;
#X obj 187 61 inlet;
#X obj 306 542 outlet;
#X obj 187 134 route list;
#X obj 186 170 route accxyz gyro;
#X obj 136 446 vsl 15 128 0 127 0 0 empty empty empty 0 -9 0 10 -262144
-1 -1 6478 1;
#X obj 94 358 ali.slide 0.3 0.3;
#X obj 133 383 ali.slide 0.3 0.3;
#X obj 169 410 ali.slide 0.3 0.3;
#X obj 577 76 unpack 1 1 1;
#X obj 582 299 ali.scale -1 1 0 127;
#X obj 618 427 vsl 15 128 0 127 0 0 empty empty empty 0 -9 0 10 -262144
-1 -1 6758 1;
#X obj 619 328 ali.scale -1 1 0 127;
#X obj 640 426 vsl 15 128 0 127 0 0 empty empty empty 0 -9 0 10 -262144
-1 -1 6343 1;
#X obj 597 426 vsl 15 128 0 127 0 0 empty empty empty 0 -9 0 10 -262144
-1 -1 6369 1;
#X obj 580 213 ali.slide 0.3 0.3;
#X obj 619 238 ali.slide 0.3 0.3;
#X obj 670 265 ali.slide 0.3 0.3;
#X obj 664 351 ali.scale -10 10 0 127;
#X floatatom 694 425 5 0 0 0 - - -;
#X obj 781 509 bng 15 250 50 0 empty empty empty 17 7 0 10 -262144
-1 -1;
#X obj 885 520 bng 15 250 50 0 empty empty empty 17 7 0 10 -262144
-1 -1;
#X floatatom 783 558 5 0 0 0 - - -;
#X floatatom 838 518 5 0 0 0 - - -;
#X obj 915 523 outlet;
#X obj 785 600 bng 15 250 50 0 empty empty empty 17 7 0 10 -262144
-1 -1;
#X msg 784 635 127;
#X obj 875 662 outlet;
#X text 988 559 record;
#X text 928 599 play speed;
#X obj 983 437 change;
#X obj 954 277;
#X msg 983 399 1;
#X obj 780 408 moses -0.2;
#X obj 853 441 moses 0.2;
#X obj 919 488 ali.scale 0.2 4 0.01 3;
#X msg 1035 402 127;
#X connect 0 0 1 0;
#X connect 0 1 3 0;
#X connect 0 1 7 0;
#X connect 0 2 5 0;
#X connect 1 0 11 0;
#X connect 3 0 12 0;
#X connect 5 0 13 0;
#X connect 6 0 8 0;
#X connect 8 0 9 0;
#X connect 9 0 0 0;
#X connect 9 1 14 0;
#X connect 11 0 10 0;
#X connect 12 0 2 0;
#X connect 13 0 4 0;
#X connect 14 0 20 0;
#X connect 14 1 21 0;
#X connect 14 2 22 0;
#X connect 15 0 19 0;
#X connect 17 0 16 0;
#X connect 20 0 15 0;
#X connect 21 0 17 0;
#X connect 22 0 23 0;
#X connect 22 0 24 0;
#X connect 22 0 38 0;
#X connect 23 0 18 0;
#X connect 26 0 37 0;
#X connect 27 0 30 0;
#X connect 30 0 31 0;
#X connect 31 0 32 0;
#X connect 31 0 37 0;
#X connect 35 0 32 0;
#X connect 37 0 35 0;
#X connect 38 0 25 0;
#X connect 38 0 27 0;
#X connect 38 1 39 0;
#X connect 39 1 26 0;
#X connect 39 1 28 0;
#X connect 39 1 40 0;
#X connect 40 0 29 0;
#X connect 41 0 35 0;
#X restore 401 252 pd acc-data;
#X msg 512 129 listen 0;
#X obj 512 257 oscparse;
#X obj 512 186 netreceive -u -b;
#X obj 531 311 bng 15 250 50 0 empty empty empty 17 7 0 10 -262144
-1 -1;
#X msg 536 158 listen 8888;
#X obj 11 94 cnv 15 340 80 empty empty gyro 20 12 0 14 -233017 -66577
0;
#X floatatom 27 139 10 0 0 1 x gx -;
#X floatatom 139 139 10 0 0 1 y gy -;
#X floatatom 248 139 10 0 0 1 z gz -;
#X obj 14 39 tgl 30 0 rungyro empty run 7 15 0 10 -262144 -1 -1 0 1
;
#X obj 19 324 tgl 30 0 updates updates-in updates 32 15 0 10 -262144
-1 -1 1 1;
#X obj 236 323 bng 30 250 50 0 update empty update 32 15 0 10 -262144
-1 -1;
#X text 48 47 turn on by sending a msg to #pdparty: gyro 1;
#X obj 58 433 hradio 54 1 0 4 speed-out speed-in empty 0 -8 0 10 -262144
-1 -1 1;
#X text 59 495 fastest;
#X text 174 495 normal;
#X text 126 495 fast;
#X text 235 495 slow;
#X text 13 369 the speed of gyroscope events & overall resource usage
;
#X text 13 385 are dependent on the desired update speed;
#X text 17 408 speed (default "normal") \, "fastest" is *intensive*
;
#N canvas 886 182 791 299 guts 0;
#X obj 40 58 unpack f f f;
#X obj 40 28 r #gyro;
#X obj 40 87 s gx;
#X obj 74 87 s gy;
#X obj 109 88 s gz;
#X obj 173 27 r rungyro;
#X msg 173 58 gyro \$1;
#X obj 266 97 s #pdparty;
#X obj 382 28 r update;
#X obj 39 164 loadbang;
#X obj 266 222 s #pdparty;
#N canvas 651 529 253 199 type 0;
#X obj 16 9 inlet;
#X obj 16 133 symbol;
#X obj 16 167 outlet;
#X msg 16 84 fastest;
#X msg 83 84 fast;
#X msg 132 83 normal;
#X msg 191 83 slow;
#X obj 16 38 sel 0 1 2 3;
#X connect 0 0 7 0;
#X connect 1 0 2 0;
#X connect 3 0 1 0;
#X connect 4 0 1 0;
#X connect 5 0 1 0;
#X connect 6 0 1 0;
#X connect 7 0 3 0;
#X connect 7 1 4 0;
#X connect 7 2 5 0;
#X connect 7 3 6 0;
#X restore 266 163 pd type;
#X obj 266 131 r speed-out;
#X msg 266 193 gyro speed \$1;
#X obj 266 28 r updates;
#X msg 266 59 gyro updates \$1;
#X msg 39 196 \; updates-in set 1 \; speed-in set 1;
#X msg 382 60 gyro;
#X obj 474 240 s #osc-out;
#X obj 449 179 oscformat gyro;
#X msg 512 106 \$1 \$2 \$3;
#X msg 591 173 giro \$1 \$2 \$3;
#X connect 0 0 2 0;
#X connect 0 1 3 0;
#X connect 0 2 4 0;
#X connect 1 0 0 0;
#X connect 1 0 20 0;
#X connect 5 0 6 0;
#X connect 6 0 7 0;
#X connect 8 0 17 0;
#X connect 9 0 16 0;
#X connect 11 0 13 0;
#X connect 12 0 11 0;
#X connect 13 0 10 0;
#X connect 14 0 15 0;
#X connect 15 0 7 0;
#X connect 17 0 7 0;
#X connect 19 0 18 0;
#X connect 20 0 21 0;
#X connect 21 0 18 0;
#X restore 301 103 pd guts;
#X text 7 7 gyroscope rotation radians/s;
#X floatatom 31 228 10 0 0 1 x ax -;
#X floatatom 134 228 10 0 0 1 y ay -;
#X floatatom 239 228 10 0 0 1 z az -;
#N canvas 709 569 472 254 guts 0;
#X obj 40 58 unpack f f f;
#X obj 74 87 s ay;
#X obj 109 87 s az;
#X obj 40 87 s ax;
#X obj 40 28 r #accelerate;
#X obj 39 164 loadbang;
#N canvas 651 529 253 199 type 0;
#X obj 16 9 inlet;
#X obj 16 133 symbol;
#X obj 16 167 outlet;
#X msg 16 84 fastest;
#X msg 83 84 fast;
#X msg 132 83 normal;
#X msg 191 83 slow;
#X obj 16 38 sel 0 1 2 3;
#X connect 0 0 7 0;
#X connect 1 0 2 0;
#X connect 3 0 1 0;
#X connect 4 0 1 0;
#X connect 5 0 1 0;
#X connect 6 0 1 0;
#X connect 7 0 3 0;
#X connect 7 1 4 0;
#X connect 7 2 5 0;
#X connect 7 3 6 0;
#X restore 297 59 pd type;
#X obj 297 27 r speed-out;
#X obj 173 27 r runaccel;
#X msg 173 58 accelerate \$1;
#X msg 297 89 accelerate speed \$1;
#X obj 173 123 s #pdparty;
#X msg 39 196 \; speed-in set 1;
#X obj 310 190 s #osc-out;
#X obj 311 157 oscformat accxyz;
#X msg 309 123 \$1 \$2 \$3;
#X connect 0 0 3 0;
#X connect 0 1 1 0;
#X connect 0 2 2 0;
#X connect 4 0 0 0;
#X connect 4 0 15 0;
#X connect 5 0 12 0;
#X connect 6 0 10 0;
#X connect 7 0 6 0;
#X connect 8 0 9 0;
#X connect 9 0 11 0;
#X connect 10 0 11 0;
#X connect 14 0 13 0;
#X connect 15 0 14 0;
#X restore 300 188 pd guts;
#X obj 14 186 tgl 30 0 runaccel empty run 7 15 0 10 -262144 -1 -1 0
1;
#X obj 1073 722 loadbang;
#X obj 872 768 *~ 0.8;
#X msg 1033 771 0.8;
#X connect 0 0 3 0;
#X connect 1 0 0 1;
#X connect 2 0 1 0;
#X connect 3 0 35 0;
#X connect 5 0 2 0;
#X connect 6 0 5 0;
#X connect 7 0 8 0;
#X connect 8 0 5 0;
#X connect 9 0 7 0;
#X connect 11 0 26 0;
#X connect 12 0 11 0;
#X connect 13 0 80 0;
#X connect 15 0 20 0;
#X connect 16 0 15 0;
#X connect 17 0 19 0;
#X connect 18 0 0 0;
#X connect 19 0 16 0;
#X connect 20 0 13 0;
#X connect 22 0 80 1;
#X connect 23 0 80 1;
#X connect 24 0 25 0;
#X connect 25 0 10 0;
#X connect 26 0 17 0;
#X connect 27 0 33 0;
#X connect 28 0 7 0;
#X connect 28 1 6 0;
#X connect 28 2 9 0;
#X connect 28 3 27 0;
#X connect 28 4 31 0;
#X connect 29 0 30 0;
#X connect 30 0 10 0;
#X connect 30 0 34 0;
#X connect 31 0 30 0;
#X connect 32 0 29 0;
#X connect 33 0 17 0;
#X connect 34 0 12 3;
#X connect 35 0 17 1;
#X connect 35 1 20 1;
#X connect 37 0 26 1;
#X connect 44 0 32 0;
#X connect 44 1 28 0;
#X connect 45 0 48 0;
#X connect 46 0 48 0;
#X connect 47 0 50 0;
#X connect 48 0 47 0;
#X connect 50 2 12 0;
#X connect 51 0 53 0;
#X connect 52 0 54 0;
#X connect 52 0 50 0;
#X connect 53 0 52 0;
#X connect 55 0 53 0;
#X connect 79 0 81 0;
#X connect 80 0 21 0;
#X connect 80 0 21 1;
#X connect 81 0 80 1;
