#N canvas 192 25 1572 881 12;
#X obj 84 48 ctlin;
#X floatatom 76 103 5 0 0 0 - - -;
#X floatatom 134 103 5 0 0 0 - - -;
#X obj 87 153 bng 15 250 50 0 empty empty empty 17 7 0 10 -262144 -1
-1;
#X floatatom 494 484 5 0 0 0 - - -;
#X obj 1042 375 ali.sample-recorder my-buffer;
#X msg 1242 339 record \$1;
#X obj 1242 307 tgl 15 0 empty empty empty 17 7 0 10 -262144 -1 -1
0 1;
#X floatatom 1043 412 5 0 0 0 - - -;
#X text 1092 413 recording length in msec;
#X obj 1244 268 change;
#X msg 1245 201 1;
#X obj 1161 200 del 200;
#X msg 1161 238 0;
#X msg 1251 160 stop;
#X obj 645 451 tgl 15 0 empty empty empty 17 7 0 10 -262144 -1 -1 1
1;
#X floatatom 494 629 5 0 0 0 - - -;
#X obj 493 594 ali.slide 0.1 0.1;
#X obj 873 723 tabread~ my-buffer;
#X text 900 676 recording length in samples;
#X obj 872 638 phasor~;
#X obj 871 595 line~;
#X obj 871 510 *;
#X obj 1038 338 adc~;
#X msg 869 559 \$1 10;
#X obj 872 680 *~;
#X obj 860 836 dac~;
#X obj 872 768 *~ 0.1;
#X msg 936 771 0;
#X msg 1033 771 0.5;
#X msg 981 770 0.1;
#X obj 631 306 loadbang;
#X msg 629 355 1;
#X obj 493 668 / 4;
#X msg 1319 200 0;
#X obj 1205 115 t b b b b b;
#X msg 719 312 1;
#X obj 717 338 change;
#X msg 1365 204 0;
#X obj 716 272 t b b;
#X msg 869 364 0;
#X msg 766 416 1;
#X obj 493 550 ali.derive 50;
#N canvas 0 23 688 592 length 0;
#X obj 337 90 inlet;
#X obj 329 270 * 44.1;
#X floatatom 334 327 5 0 0 0 - - -;
#X obj 239 219 / 1000;
#X obj 241 250 t b f;
#X msg 219 291 1;
#X obj 270 330 /;
#X obj 353 471 outlet;
#X obj 230 473 outlet;
#X connect 0 0 1 0;
#X connect 0 0 3 0;
#X connect 1 0 2 0;
#X connect 2 0 7 0;
#X connect 3 0 4 0;
#X connect 4 0 5 0;
#X connect 4 1 6 1;
#X connect 5 0 6 0;
#X connect 6 0 8 0;
#X restore 949 465 pd length;
#X text 903 507 phasor frequency for normal speed playback;
#X floatatom 561 663 5 0 0 0 - - -;
#X text 561 641 turn-rate modifier;
#X text 719 240 clockwise;
#X text 1293 116 counter-clockwise;
#N canvas 0 23 773 604 counter 0;
#X obj 568 390 +;
#X obj 572 436 t f f;
#X msg 544 327 -1;
#X msg 456 329 1;
#X obj 530 224 inlet;
#X obj 480 207 inlet;
#X obj 583 495 outlet;
#X connect 0 0 1 0;
#X connect 1 0 6 0;
#X connect 1 1 0 1;
#X connect 2 0 0 0;
#X connect 3 0 0 0;
#X connect 4 0 2 0;
#X connect 5 0 3 0;
#X restore 480 363 pd counter;
#X text 900 366 stop playback;
#X text 668 448 stop/start speed calc;
#X text 497 696 playback speed;
#X obj 670 156 sel 1 127;
#X obj 676 53 tgl 15 0 empty empty empty 17 7 0 10 -262144 -1 -1 0
1;
#X obj 682 74 sel 0 1;
#X msg 667 105 1;
#X msg 717 106 127;
#X msg 42 225 listen 0;
#X msg 66 254 listen 8000;
#X obj 42 303 oscparse;
#X obj 42 282 netreceive -u -b;
#X obj 130 538 -;
#X obj 716 821 print;
#X obj 193 501 float;
#X obj 129 437 t float float float b;
#X floatatom 150 689 5 0 0 0 - - -;
#X floatatom 249 692 5 0 0 0 - - -;
#X floatatom 68 690 5 0 0 0 - - -;
#X obj 74 650 moses -0.05;
#X obj 142 603 moses 0.05;
#N canvas 514 160 697 577 acc-data 0;
#X obj 172 139 unpack 1 1 1;
#X obj 172 247 vsl 15 128 0 127 0 0 empty empty empty 0 -9 0 10 -262144
-1 -1 6032 1;
#X obj 172 205 ali.scale -1 1 0 127;
#X obj 216 280 vsl 15 128 0 127 0 0 empty empty empty 0 -9 0 10 -262144
-1 -1 6260 1;
#X obj 216 238 ali.scale -1 1 0 127;
#X obj 269 318 vsl 15 128 0 127 0 0 empty empty empty 0 -9 0 10 -262144
-1 -1 60 1;
#X obj 269 276 ali.scale -1 1 0 127;
#X obj 187 61 inlet;
#X obj 360 433 outlet;
#X obj 388 120;
#X obj 43 421 route list;
#X obj 42 457 route accxyz;
#X connect 0 0 2 0;
#X connect 0 1 4 0;
#X connect 0 1 8 0;
#X connect 0 2 6 0;
#X connect 2 0 1 0;
#X connect 4 0 3 0;
#X connect 6 0 5 0;
#X connect 7 0 10 0;
#X connect 10 0 11 0;
#X connect 11 0 0 0;
#X restore 42 345 pd acc-data;
#X obj 69 731 bng 15 250 50 0 empty empty empty 17 7 0 10 -262144 -1
-1;
#X obj 151 724 bng 15 250 50 0 empty empty empty 17 7 0 10 -262144
-1 -1;
#X obj 247 728 bng 15 250 50 0 empty empty empty 17 7 0 10 -262144
-1 -1;
#X connect 0 0 1 0;
#X connect 0 1 2 0;
#X connect 1 0 3 0;
#X connect 1 0 53 0;
#X connect 4 0 42 0;
#X connect 5 0 8 0;
#X connect 6 0 5 1;
#X connect 7 0 6 0;
#X connect 8 0 43 0;
#X connect 10 0 7 0;
#X connect 11 0 10 0;
#X connect 12 0 13 0;
#X connect 13 0 10 0;
#X connect 14 0 12 0;
#X connect 15 0 42 1;
#X connect 16 0 33 0;
#X connect 17 0 16 0;
#X connect 18 0 27 0;
#X connect 20 0 25 0;
#X connect 21 0 20 0;
#X connect 22 0 24 0;
#X connect 23 0 5 0;
#X connect 24 0 21 0;
#X connect 25 0 18 0;
#X connect 27 0 26 0;
#X connect 27 0 26 1;
#X connect 28 0 27 1;
#X connect 29 0 27 1;
#X connect 30 0 27 1;
#X connect 31 0 32 0;
#X connect 32 0 15 0;
#X connect 33 0 22 0;
#X connect 34 0 40 0;
#X connect 35 0 12 0;
#X connect 35 1 11 0;
#X connect 35 2 14 0;
#X connect 35 3 34 0;
#X connect 35 4 38 0;
#X connect 36 0 37 0;
#X connect 37 0 15 0;
#X connect 37 0 41 0;
#X connect 38 0 37 0;
#X connect 39 0 36 0;
#X connect 40 0 22 0;
#X connect 41 0 17 3;
#X connect 42 0 17 0;
#X connect 43 0 22 1;
#X connect 43 1 25 1;
#X connect 45 0 33 1;
#X connect 49 0 4 0;
#X connect 53 0 49 0;
#X connect 53 0 39 0;
#X connect 53 1 49 1;
#X connect 53 1 35 0;
#X connect 54 0 55 0;
#X connect 55 0 56 0;
#X connect 55 1 57 0;
#X connect 56 0 53 0;
#X connect 57 0 53 0;
#X connect 58 0 61 0;
#X connect 59 0 61 0;
#X connect 60 0 71 0;
#X connect 61 0 60 0;
#X connect 62 0 70 0;
#X connect 64 0 62 1;
#X connect 65 0 62 0;
#X connect 65 2 64 1;
#X connect 65 3 64 0;
#X connect 66 0 73 0;
#X connect 67 0 74 0;
#X connect 68 0 72 0;
#X connect 69 0 68 0;
#X connect 69 1 66 0;
#X connect 70 0 69 0;
#X connect 70 1 67 0;
#X connect 71 0 65 0;
