#N canvas 216 105 1332 881 12;
#X obj 84 48 ctlin;
#X floatatom 76 103 5 0 0 0 - - -;
#X floatatom 134 103 5 0 0 0 - - -;
#X obj 87 153 bng 15 250 50 0 empty empty empty 17 7 0 10 -262144 -1
-1;
#X floatatom 219 476 5 0 0 0 - - -;
#X obj 767 367 ali.sample-recorder my-buffer;
#X msg 967 331 record \$1;
#X obj 967 299 tgl 15 0 empty empty empty 17 7 0 10 -262144 -1 -1 0
1;
#X floatatom 768 404 5 0 0 0 - - -;
#X text 817 405 recording length in msec;
#X obj 969 260 change;
#X msg 970 193 1;
#X obj 886 192 del 200;
#X msg 886 230 0;
#X msg 985 140 stop;
#X obj 370 443 tgl 15 0 empty empty empty 17 7 0 10 -262144 -1 -1 1
1;
#X floatatom 219 621 5 0 0 0 - - -;
#X obj 218 586 ali.slide 0.1 0.1;
#X obj 598 715 tabread~ my-buffer;
#X text 625 668 recording length in samples;
#X obj 597 630 phasor~;
#X obj 596 587 line~;
#X obj 596 502 *;
#X obj 763 330 adc~;
#X msg 594 551 \$1 10;
#X obj 597 672 *~;
#X obj 585 828 dac~;
#X obj 597 760 *~ 0.1;
#X msg 661 763 0;
#X msg 758 763 0.5;
#X msg 706 762 0.1;
#X obj 356 298 loadbang;
#X msg 354 347 1;
#X obj 218 660 / 4;
#X msg 1044 192 0;
#X obj 930 107 t b b b b b;
#X msg 444 304 1;
#X obj 442 330 change;
#X msg 1090 196 0;
#X obj 441 264 t b b;
#X msg 594 356 0;
#X msg 491 408 1;
#X obj 218 542 ali.derive 50;
#N canvas 0 23 688 592 length 0;
#X obj 337 90 inlet;
#X obj 329 270 * 44.1;
#X floatatom 334 327 5 0 0 0 - - -;
#X obj 239 219 / 1000;
#X obj 241 250 t b f;
#X msg 219 291 1;
#X obj 270 330 /;
#X obj 353 471 outlet;
#X obj 230 473 outlet;
#X connect 0 0 1 0;
#X connect 0 0 3 0;
#X connect 1 0 2 0;
#X connect 2 0 7 0;
#X connect 3 0 4 0;
#X connect 4 0 5 0;
#X connect 4 1 6 1;
#X connect 5 0 6 0;
#X connect 6 0 8 0;
#X restore 674 457 pd length;
#X text 628 499 phasor frequency for normal speed playback;
#X floatatom 286 655 5 0 0 0 - - -;
#X text 286 633 turn-rate modifier;
#X text 444 232 clockwise;
#X text 1018 108 counter-clockwise;
#N canvas 0 23 773 604 counter 0;
#X obj 568 390 +;
#X obj 572 436 t f f;
#X msg 544 327 -1;
#X msg 456 329 1;
#X obj 530 224 inlet;
#X obj 480 207 inlet;
#X obj 583 495 outlet;
#X connect 0 0 1 0;
#X connect 1 0 6 0;
#X connect 1 1 0 1;
#X connect 2 0 0 0;
#X connect 3 0 0 0;
#X connect 4 0 2 0;
#X connect 5 0 3 0;
#X restore 205 355 pd counter;
#X text 625 358 stop playback;
#X text 393 440 stop/start speed calc;
#X text 222 688 playback speed;
#X obj 541 24 sel 1 127;
#X connect 0 0 1 0;
#X connect 0 1 2 0;
#X connect 1 0 3 0;
#X connect 1 0 53 0;
#X connect 4 0 42 0;
#X connect 5 0 8 0;
#X connect 6 0 5 1;
#X connect 7 0 6 0;
#X connect 8 0 43 0;
#X connect 10 0 7 0;
#X connect 11 0 10 0;
#X connect 12 0 13 0;
#X connect 13 0 10 0;
#X connect 14 0 12 0;
#X connect 15 0 42 1;
#X connect 16 0 33 0;
#X connect 17 0 16 0;
#X connect 18 0 27 0;
#X connect 20 0 25 0;
#X connect 21 0 20 0;
#X connect 22 0 24 0;
#X connect 23 0 5 0;
#X connect 24 0 21 0;
#X connect 25 0 18 0;
#X connect 27 0 26 0;
#X connect 27 0 26 1;
#X connect 28 0 27 1;
#X connect 29 0 27 1;
#X connect 30 0 27 1;
#X connect 31 0 32 0;
#X connect 32 0 15 0;
#X connect 33 0 22 0;
#X connect 34 0 40 0;
#X connect 35 0 12 0;
#X connect 35 1 11 0;
#X connect 35 2 14 0;
#X connect 35 3 34 0;
#X connect 35 4 38 0;
#X connect 36 0 37 0;
#X connect 37 0 15 0;
#X connect 37 0 41 0;
#X connect 38 0 37 0;
#X connect 39 0 36 0;
#X connect 40 0 22 0;
#X connect 41 0 17 3;
#X connect 42 0 17 0;
#X connect 43 0 22 1;
#X connect 43 1 25 1;
#X connect 45 0 33 1;
#X connect 49 0 4 0;
#X connect 53 0 49 0;
#X connect 53 0 39 0;
#X connect 53 1 49 1;
#X connect 53 1 35 0;
