#N canvas 101 111 1413 837 10;
#X obj 169 58 key;
#X floatatom 237 152 5 0 0 0 - - -;
#X obj 279 195 - 10;
#X floatatom 315 155 5 0 0 0 - - -;
#X obj 311 276 mtof;
#X obj 307 235 clip 0 127;
#X obj 338 326 osc~;
#X obj 341 441 *~ 0.3;
#X floatatom 402 420 5 0 0 0 - - -;
#X obj 417 362 tgl 15 0 empty empty empty 17 7 0 10 -262144 -1 -1 1
1;
#X obj 353 385 *~;
#X floatatom 536 259 5 0 0 0 - - -;
#X floatatom 642 261 5 0 0 0 - - -;
#X floatatom 747 261 5 0 0 0 - - -;
#X floatatom 852 261 5 0 0 0 - - -;
#X floatatom 964 262 5 0 0 0 - - -;
#X floatatom 1087 258 5 0 0 0 - - -;
#X floatatom 1186 258 5 0 0 0 - - -;
#X msg 536 307 freq \$1;
#X msg 642 307 amp \$1;
#X msg 747 307 vfr \$1;
#X msg 854 305 vib \$1;
#X msg 965 305 bw \$1;
#X msg 1087 304 cf \$1;
#X msg 1186 304 shift \$1;
#X floatatom 1282 256 5 0 0 0 - - -;
#X msg 1282 302 cfgliss \$1;
#X obj 495 703 dac~ 1 2;
#X text 943 502 <-Click to start;
#X obj 925 506 tgl 15 0 empty empty empty 17 7 0 10 -262144 -1 -1 1
1;
#X msg 924 542 \; pd dsp \$1 \;;
#X obj 512 653 *~;
#X obj 692 629 line~;
#X obj 695 416 vsl 15 128 0 1 0 1 VCO_freq empty empty 0 -9 0 10 -262144
-1 -1 1200 1;
#X floatatom 695 556 5 0 0 0 - - -;
#X msg 696 595 \$1 20;
#X floatatom 435 39 5 0 0 0 - - -;
#X msg 562 106 1;
#X obj 535 59 bng 15 250 50 0 empty empty empty 17 7 0 10 -262144 -1
-1;
#X floatatom 460 189 5 0 0 0 - - -;
#X obj 372 269 ali.scale 0 127 0 99;
#X obj 840 204 random 60;
#X obj 528 219 ali.scale -1 1 30 100;
#X obj 746 205 random 60;
#X obj 491 169 array define pitchtable;
#X obj 448 147 array get pitchtable;
#X obj 964 204 random 20;
#X obj 237 79 spigot;
#X obj 274 43 tgl 15 0 empty empty empty 17 7 0 10 -262144 -1 -1 1
1;
#X obj 515 536 ali.paf~;
#X connect 0 0 47 0;
#X connect 1 0 2 0;
#X connect 2 0 5 0;
#X connect 3 0 2 1;
#X connect 4 0 6 0;
#X connect 5 0 4 0;
#X connect 5 0 40 0;
#X connect 6 0 10 0;
#X connect 7 0 31 0;
#X connect 8 0 7 1;
#X connect 9 0 10 1;
#X connect 10 0 7 0;
#X connect 11 0 18 0;
#X connect 12 0 19 0;
#X connect 13 0 20 0;
#X connect 14 0 21 0;
#X connect 15 0 22 0;
#X connect 16 0 23 0;
#X connect 17 0 24 0;
#X connect 18 0 49 0;
#X connect 19 0 49 0;
#X connect 20 0 49 0;
#X connect 21 0 49 0;
#X connect 22 0 49 0;
#X connect 23 0 49 0;
#X connect 24 0 49 0;
#X connect 25 0 26 0;
#X connect 26 0 49 0;
#X connect 29 0 30 0;
#X connect 31 0 27 0;
#X connect 31 0 27 1;
#X connect 32 0 31 1;
#X connect 33 0 34 0;
#X connect 34 0 35 0;
#X connect 35 0 32 0;
#X connect 36 0 38 0;
#X connect 36 0 45 0;
#X connect 37 0 45 1;
#X connect 38 0 37 0;
#X connect 38 0 41 0;
#X connect 38 0 43 0;
#X connect 38 0 46 0;
#X connect 39 0 42 0;
#X connect 41 0 14 0;
#X connect 42 0 11 0;
#X connect 43 0 13 0;
#X connect 45 0 39 0;
#X connect 47 0 1 0;
#X connect 48 0 47 1;
