#N canvas 555 162 364 527 10;
#X obj 11 94 cnv 15 340 80 empty empty gyro 20 12 0 14 -233017 -66577
0;
#X floatatom 27 139 10 0 0 1 x gx -;
#X floatatom 139 139 10 0 0 1 y gy -;
#X floatatom 248 139 10 0 0 1 z gz -;
#X obj 14 39 tgl 30 0 rungyro empty run 7 15 0 10 -262144 -1 -1 0 1
;
#X obj 19 324 tgl 30 0 updates updates-in updates 32 15 0 10 -262144
-1 -1 1 1;
#X obj 236 323 bng 30 250 50 0 update empty update 32 15 0 10 -262144
-1 -1;
#X text 48 47 turn on by sending a msg to #pdparty: gyro 1;
#X obj 58 433 hradio 54 1 0 4 speed-out speed-in empty 0 -8 0 10 -262144
-1 -1 1;
#X text 59 495 fastest;
#X text 174 495 normal;
#X text 126 495 fast;
#X text 235 495 slow;
#X text 13 369 the speed of gyroscope events & overall resource usage
;
#X text 13 385 are dependent on the desired update speed;
#X text 17 408 speed (default "normal") \, "fastest" is *intensive*
;
#N canvas 886 182 791 299 guts 0;
#X obj 40 58 unpack f f f;
#X obj 40 28 r #gyro;
#X obj 40 87 s gx;
#X obj 74 87 s gy;
#X obj 109 88 s gz;
#X obj 173 27 r rungyro;
#X msg 173 58 gyro \$1;
#X obj 266 97 s #pdparty;
#X obj 382 28 r update;
#X obj 39 164 loadbang;
#X obj 266 222 s #pdparty;
#N canvas 651 529 253 199 type 0;
#X obj 16 9 inlet;
#X obj 16 133 symbol;
#X obj 16 167 outlet;
#X msg 16 84 fastest;
#X msg 83 84 fast;
#X msg 132 83 normal;
#X msg 191 83 slow;
#X obj 16 38 sel 0 1 2 3;
#X connect 0 0 7 0;
#X connect 1 0 2 0;
#X connect 3 0 1 0;
#X connect 4 0 1 0;
#X connect 5 0 1 0;
#X connect 6 0 1 0;
#X connect 7 0 3 0;
#X connect 7 1 4 0;
#X connect 7 2 5 0;
#X connect 7 3 6 0;
#X restore 266 163 pd type;
#X obj 266 131 r speed-out;
#X msg 266 193 gyro speed \$1;
#X obj 266 28 r updates;
#X msg 266 59 gyro updates \$1;
#X msg 39 196 \; updates-in set 1 \; speed-in set 1;
#X msg 382 60 gyro;
#X obj 426 227 s #osc-out;
#X obj 449 179 oscformat gyro;
#X msg 449 131 \$1 \$2 \$3;
#X connect 0 0 2 0;
#X connect 0 1 3 0;
#X connect 0 2 4 0;
#X connect 1 0 0 0;
#X connect 1 0 20 0;
#X connect 5 0 6 0;
#X connect 6 0 7 0;
#X connect 8 0 17 0;
#X connect 9 0 16 0;
#X connect 11 0 13 0;
#X connect 12 0 11 0;
#X connect 13 0 10 0;
#X connect 14 0 15 0;
#X connect 15 0 7 0;
#X connect 17 0 7 0;
#X connect 19 0 18 0;
#X connect 20 0 19 0;
#X restore 301 103 pd guts;
#X text 7 7 gyroscope rotation radians/s;
#X floatatom 31 228 10 0 0 1 x ax -;
#X floatatom 134 228 10 0 0 1 y ay -;
#X floatatom 239 228 10 0 0 1 z az -;
#N canvas 709 569 472 254 guts 0;
#X obj 40 58 unpack f f f;
#X obj 74 87 s ay;
#X obj 109 87 s az;
#X obj 40 87 s ax;
#X obj 40 28 r #accelerate;
#X obj 39 164 loadbang;
#N canvas 651 529 253 199 type 0;
#X obj 16 9 inlet;
#X obj 16 133 symbol;
#X obj 16 167 outlet;
#X msg 16 84 fastest;
#X msg 83 84 fast;
#X msg 132 83 normal;
#X msg 191 83 slow;
#X obj 16 38 sel 0 1 2 3;
#X connect 0 0 7 0;
#X connect 1 0 2 0;
#X connect 3 0 1 0;
#X connect 4 0 1 0;
#X connect 5 0 1 0;
#X connect 6 0 1 0;
#X connect 7 0 3 0;
#X connect 7 1 4 0;
#X connect 7 2 5 0;
#X connect 7 3 6 0;
#X restore 297 59 pd type;
#X obj 297 27 r speed-out;
#X obj 173 27 r runaccel;
#X msg 173 58 accelerate \$1;
#X msg 297 89 accelerate speed \$1;
#X obj 173 123 s #pdparty;
#X msg 39 196 \; speed-in set 1;
#X obj 310 190 s #osc-out;
#X obj 311 157 oscformat accxyz;
#X msg 309 123 \$1 \$2 \$3;
#X connect 0 0 3 0;
#X connect 0 1 1 0;
#X connect 0 2 2 0;
#X connect 4 0 0 0;
#X connect 4 0 15 0;
#X connect 5 0 12 0;
#X connect 6 0 10 0;
#X connect 7 0 6 0;
#X connect 8 0 9 0;
#X connect 9 0 11 0;
#X connect 10 0 11 0;
#X connect 14 0 13 0;
#X connect 15 0 14 0;
#X restore 300 188 pd guts;
#X obj 14 186 tgl 30 0 runaccel empty run 7 15 0 10 -262144 -1 -1 0
1;
