#N canvas 97 875 331 488 12;
#X obj 115 198 tgl 32 0 record record-in Record 33 16 0 10 -258113
-1 -1 0 1;
#X obj 458 61 cnv 15 340 80 empty empty gyro 20 12 0 14 -233017 -66577
0;
#X floatatom 474 106 10 0 0 1 x gx -;
#X floatatom 586 106 10 0 0 1 y gy -;
#X floatatom 695 106 10 0 0 1 z gz -;
#X obj 15 13 tgl 30 0 rungyro empty run 7 15 0 10 -262144 -1 -1 0 1
;
#X obj 457 308 tgl 30 0 updates updates-in updates 32 15 0 10 -262144
-1 -1 1 1;
#X obj 678 306 bng 30 250 50 0 update empty update 32 15 0 10 -262144
-1 -1;
#X obj 500 416 hradio 54 1 0 4 speed-out speed-in empty 0 -8 0 10 -262144
-1 -1 1;
#X text 501 478 fastest;
#X text 616 478 normal;
#X text 568 478 fast;
#X text 677 478 slow;
#X text 455 352 the speed of gyroscope events & overall resource usage
;
#X text 455 368 are dependent on the desired update speed;
#X text 459 391 speed (default "normal") \, "fastest" is *intensive*
;
#N canvas 442 291 881 421 guts 0;
#X obj 461 28 r #gyro;
#X obj 173 27 r rungyro;
#X msg 173 58 gyro \$1;
#X obj 266 97 s #pdparty;
#X obj 382 28 r update;
#X obj 39 164 loadbang;
#X obj 266 222 s #pdparty;
#N canvas 651 529 253 199 type 0;
#X obj 16 9 inlet;
#X obj 16 133 symbol;
#X obj 16 167 outlet;
#X msg 16 84 fastest;
#X msg 83 84 fast;
#X msg 132 83 normal;
#X msg 191 83 slow;
#X obj 16 38 sel 0 1 2 3;
#X connect 0 0 7 0;
#X connect 1 0 2 0;
#X connect 3 0 1 0;
#X connect 4 0 1 0;
#X connect 5 0 1 0;
#X connect 6 0 1 0;
#X connect 7 0 3 0;
#X connect 7 1 4 0;
#X connect 7 2 5 0;
#X connect 7 3 6 0;
#X restore 266 163 pd type;
#X obj 266 131 r speed-out;
#X msg 266 193 gyro speed \$1;
#X obj 266 28 r updates;
#X msg 266 59 gyro updates \$1;
#X msg 39 196 \; updates-in set 1 \; speed-in set 1;
#X msg 382 60 gyro;
#X obj 474 240 s #osc-out;
#X obj 449 179 oscformat gyro;
#X msg 446 81 \$1 \$2 \$3;
#X obj 449 136 spigot;
#X obj 545 102 tgl 15 0 empty empty empty 17 7 0 10 -262144 -1 -1 0
1;
#X obj 578 22 r dev;
#X obj 645 82 == 0;
#X obj 573 135 spigot;
#X obj 608 107 tgl 15 0 empty empty empty 17 7 0 10 -262144 -1 -1 1
1;
#X msg 591 173 gyro \$1 \$2 \$3;
#X obj 594 236 s sensors;
#X obj 527 67 bng 15 250 50 0 empty empty empty 17 7 0 10 -262144 -1
-1;
#X obj 344 304 unpack f f f;
#X obj 344 333 s gx;
#X obj 378 333 s gy;
#X obj 413 334 s gz;
#X connect 0 0 16 0;
#X connect 0 0 25 0;
#X connect 1 0 2 0;
#X connect 2 0 3 0;
#X connect 4 0 13 0;
#X connect 5 0 12 0;
#X connect 7 0 9 0;
#X connect 8 0 7 0;
#X connect 9 0 6 0;
#X connect 10 0 11 0;
#X connect 11 0 3 0;
#X connect 13 0 3 0;
#X connect 15 0 14 0;
#X connect 16 0 17 0;
#X connect 16 0 21 0;
#X connect 17 0 15 0;
#X connect 17 0 26 0;
#X connect 18 0 17 1;
#X connect 19 0 20 0;
#X connect 19 0 18 0;
#X connect 20 0 22 0;
#X connect 21 0 23 0;
#X connect 22 0 21 1;
#X connect 23 0 24 0;
#X connect 26 0 27 0;
#X connect 26 1 28 0;
#X connect 26 2 29 0;
#X restore 748 70 pd guts;
#X floatatom 473 211 10 0 0 1 x ax -;
#X floatatom 576 211 10 0 0 1 y ay -;
#X floatatom 681 211 10 0 0 1 z az -;
#N canvas 442 619 791 380 guts 0;
#X obj 40 28 r #accelerate;
#X obj 39 164 loadbang;
#N canvas 651 529 253 199 type 0;
#X obj 16 9 inlet;
#X obj 16 133 symbol;
#X obj 16 167 outlet;
#X msg 16 84 fastest;
#X msg 83 84 fast;
#X msg 132 83 normal;
#X msg 191 83 slow;
#X obj 16 38 sel 0 1 2 3;
#X connect 0 0 7 0;
#X connect 1 0 2 0;
#X connect 3 0 1 0;
#X connect 4 0 1 0;
#X connect 5 0 1 0;
#X connect 6 0 1 0;
#X connect 7 0 3 0;
#X connect 7 1 4 0;
#X connect 7 2 5 0;
#X connect 7 3 6 0;
#X restore 297 59 pd type;
#X obj 297 27 r speed-out;
#X obj 173 27 r runaccel;
#X msg 173 58 accelerate \$1;
#X msg 297 89 accelerate speed \$1;
#X obj 173 123 s #pdparty;
#X msg 39 196 \; speed-in set 1;
#X obj 310 343 s #osc-out;
#X obj 311 310 oscformat accxyz;
#X msg 309 123 \$1 \$2 \$3;
#X msg 511 255 accxyz \$1 \$2 \$3;
#X obj 340 204 spigot;
#X obj 377 172 tgl 15 0 empty empty empty 17 7 0 10 -262144 -1 -1 0
1;
#X obj 475 88 r dev;
#X obj 499 127 == 0;
#X obj 462 207 spigot;
#X obj 499 175 tgl 15 0 empty empty empty 17 7 0 10 -262144 -1 -1 1
1;
#X obj 516 313 s sensors;
#X connect 0 0 11 0;
#X connect 1 0 8 0;
#X connect 2 0 6 0;
#X connect 3 0 2 0;
#X connect 4 0 5 0;
#X connect 5 0 7 0;
#X connect 6 0 7 0;
#X connect 10 0 9 0;
#X connect 11 0 13 0;
#X connect 11 0 17 0;
#X connect 12 0 19 0;
#X connect 13 0 10 0;
#X connect 14 0 13 1;
#X connect 15 0 16 0;
#X connect 15 0 14 0;
#X connect 16 0 18 0;
#X connect 17 0 12 0;
#X connect 18 0 17 1;
#X restore 742 171 pd guts;
#X obj 456 169 tgl 30 0 runaccel empty run 7 15 0 10 -262144 -1 -1
0 1;
#X floatatom 774 539 5 0 0 0 Play_Speed playspeed-in playspeed;
#X obj 920 396 r playspeed;
#X obj 921 346 s playspeed-in;
#X obj 164 10 tgl 32 0 dev dev-in Dev_Mode 33 16 0 10 -262144 -1 -1
0 1;
#N canvas 0 25 1516 1173 audio 0;
#X obj 1042 375 ali.sample-recorder my-buffer;
#X msg 1242 339 record \$1;
#X floatatom 1043 412 5 0 0 0 - - -;
#X text 1092 413 recording length in msec;
#X obj 1244 268 change;
#X msg 1245 201 1;
#X obj 1161 200 del 200;
#X msg 1161 238 0;
#X msg 1251 160 stop;
#X obj 645 451 tgl 15 0 empty empty empty 17 7 0 10 -262144 -1 -1 1
1;
#X floatatom 494 629 5 0 0 0 - - -;
#X obj 493 594 ali.slide 0.1 0.1;
#X obj 873 723 tabread~ my-buffer;
#X text 900 676 recording length in samples;
#X obj 872 638 phasor~;
#X obj 871 595 line~;
#X obj 871 510 *;
#X obj 1038 338 adc~;
#X msg 869 559 \$1 10;
#X obj 872 680 *~;
#X obj 631 306 loadbang;
#X msg 629 355 1;
#X msg 1319 200 0;
#X obj 1205 115 t b b b b b;
#X msg 719 312 1;
#X obj 717 338 change;
#X msg 1365 204 0;
#X obj 716 272 t b b;
#X msg 869 364 0;
#X msg 766 416 1;
#N canvas 0 25 688 592 length 0;
#X obj 337 90 inlet;
#X obj 329 270 * 44.1;
#X floatatom 334 327 5 0 0 0 - - -;
#X obj 239 219 / 1000;
#X obj 241 250 t b f;
#X msg 219 291 1;
#X obj 270 330 /;
#X obj 353 471 outlet;
#X obj 230 473 outlet;
#X connect 0 0 1 0;
#X connect 0 0 3 0;
#X connect 1 0 2 0;
#X connect 2 0 7 0;
#X connect 3 0 4 0;
#X connect 4 0 5 0;
#X connect 4 1 6 1;
#X connect 5 0 6 0;
#X connect 6 0 8 0;
#X restore 949 465 pd length;
#X text 903 507 phasor frequency for normal speed playback;
#X floatatom 561 663 5 0 0 0 - - -;
#X text 561 641 turn-rate modifier;
#X text 719 240 clockwise;
#X text 1293 116 counter-clockwise;
#X text 900 366 stop playback;
#X text 668 448 stop/start speed calc;
#X text 497 696 playback speed;
#X obj 717 158 sel 1 127;
#X obj 1302 305 s record-in;
#X obj 1349 367 r record;
#X obj 715 104 inlet;
#X obj 451 294 inlet;
#X obj 493 668 / 1;
#X obj 736 835 outlet~;
#X connect 0 0 2 0;
#X connect 1 0 0 1;
#X connect 2 0 30 0;
#X connect 4 0 40 0;
#X connect 5 0 4 0;
#X connect 6 0 7 0;
#X connect 7 0 4 0;
#X connect 8 0 6 0;
#X connect 10 0 44 0;
#X connect 11 0 10 0;
#X connect 12 0 45 0;
#X connect 14 0 19 0;
#X connect 15 0 14 0;
#X connect 16 0 18 0;
#X connect 17 0 0 0;
#X connect 18 0 15 0;
#X connect 19 0 12 0;
#X connect 20 0 21 0;
#X connect 21 0 9 0;
#X connect 22 0 28 0;
#X connect 23 0 6 0;
#X connect 23 1 5 0;
#X connect 23 2 8 0;
#X connect 23 3 22 0;
#X connect 23 4 26 0;
#X connect 24 0 25 0;
#X connect 25 0 9 0;
#X connect 25 0 29 0;
#X connect 26 0 25 0;
#X connect 27 0 24 0;
#X connect 27 1 14 1;
#X connect 28 0 16 0;
#X connect 29 0 11 3;
#X connect 30 0 16 1;
#X connect 30 1 19 1;
#X connect 32 0 44 1;
#X connect 39 0 27 0;
#X connect 39 1 23 0;
#X connect 41 0 1 0;
#X connect 42 0 39 0;
#X connect 43 0 11 0;
#X connect 44 0 16 0;
#X restore 919 454 pd audio;
#X obj 919 158 r sensors;
#N canvas 0 25 714 368 OSC 0;
#X msg 405 119 listen 0;
#X obj 405 219 oscparse;
#X obj 405 176 netreceive -u -b;
#X msg 429 148 listen 8888;
#X obj 415 76 sel 0 1;
#X obj 422 304 outlet;
#X obj 413 36 inlet;
#X connect 0 0 2 0;
#X connect 1 0 5 0;
#X connect 2 0 1 0;
#X connect 3 0 2 0;
#X connect 4 0 0 0;
#X connect 4 1 3 0;
#X connect 6 0 4 0;
#X restore 848 160 pd OSC;
#X obj 849 126 tgl 15 0 empty empty empty 17 7 0 10 -262144 -1 -1 0
1;
#X obj 909 216 bng 15 250 50 0 empty empty empty 17 7 0 10 -262144
-1 -1;
#X floatatom 1055 353 5 0 0 0 - - -;
#X obj 1008 293 bng 15 250 50 0 empty empty empty 17 7 0 10 -262144
-1 -1;
#X obj 1248 32 loadbang;
#X msg 1248 74 \; pd dsp 1;
#X msg 1167 79 \; dev-in 0;
#X obj 974 212 bng 15 250 50 0 empty empty empty 17 7 0 10 -262144
-1 -1;
#X obj 1025 602 dac~;
#X msg 1016 490 0;
#X msg 1061 489 0.1;
#X obj 1153 441 loadbang;
#X obj 952 487 *~ 0.8;
#X msg 1113 490 0.8;
#N canvas 1165 636 1319 846 mapping 0;
#X obj 127 248 unpack 1 1 1;
#X obj 96 286 ali.scale -1 1 0 127;
#X obj 157 447 vsl 15 128 0 127 0 0 empty empty empty 0 -9 0 10 -262144
-1 -1 0 1;
#X obj 174 312 ali.scale -1 1 0 127;
#X obj 179 446 vsl 15 128 0 127 0 0 empty empty empty 0 -9 0 10 -262144
-1 -1 0 1;
#X obj 227 350 ali.scale -1 1 0 127;
#X obj 187 61 inlet;
#X obj 187 117 route list;
#X obj 186 170 route accxyz gyro;
#X obj 136 446 vsl 15 128 0 127 0 0 empty empty empty 0 -9 0 10 -262144
-1 -1 0 1;
#X obj 94 358 ali.slide 0.3 0.3;
#X obj 133 383 ali.slide 0.3 0.3;
#X obj 169 410 ali.slide 0.3 0.3;
#X obj 577 76 unpack 1 1 1;
#X obj 582 299 ali.scale -1 1 0 127;
#X obj 618 427 vsl 15 128 0 127 0 0 empty empty empty 0 -9 0 10 -262144
-1 -1 0 1;
#X obj 619 328 ali.scale -1 1 0 127;
#X obj 640 426 vsl 15 128 0 127 0 0 empty empty empty 0 -9 0 10 -262144
-1 -1 0 1;
#X obj 597 426 vsl 15 128 0 127 0 0 empty empty empty 0 -9 0 10 -262144
-1 -1 0 1;
#X obj 580 213 ali.slide 0.3 0.3;
#X obj 619 238 ali.slide 0.3 0.3;
#X obj 670 265 ali.slide 0.3 0.3;
#X obj 664 351 ali.scale -10 10 0 127;
#X floatatom 694 425 5 0 0 0 - - -;
#X obj 781 509 bng 15 250 50 0 empty empty empty 17 7 0 10 -262144
-1 -1;
#X obj 885 520 bng 15 250 50 0 empty empty empty 17 7 0 10 -262144
-1 -1;
#X floatatom 783 558 5 0 0 0 - - -;
#X floatatom 838 518 5 0 0 0 - - -;
#X obj 915 523 outlet;
#X obj 785 600 bng 15 250 50 0 empty empty empty 17 7 0 10 -262144
-1 -1;
#X msg 784 635 127;
#X obj 986 663 outlet;
#X text 963 518 play speed;
#X obj 978 610 change;
#X msg 978 572 1;
#X obj 780 408 moses -0.2;
#X obj 853 441 moses 0.2;
#X msg 1030 575 127;
#X text 910 635 record/play 127/1;
#X obj 384 265 unpack f f f;
#X obj 384 294 s gx;
#X obj 418 294 s gy;
#X obj 453 295 s gz;
#X obj 40 58 unpack f f f;
#X obj 74 87 s ay;
#X obj 109 87 s az;
#X obj 40 87 s ax;
#X obj 351 210 bng 15 250 50 0 empty empty empty 17 7 0 10 -262144
-1 -1;
#X obj 816 485 bng 15 250 50 0 empty empty empty 17 7 0 10 -262144
-1 -1;
#X obj 296 65 inlet;
#X obj 919 488 ali.scale 0.2 8 0.01 3;
#X connect 0 0 1 0;
#X connect 0 1 3 0;
#X connect 0 2 5 0;
#X connect 1 0 10 0;
#X connect 3 0 11 0;
#X connect 5 0 12 0;
#X connect 6 0 7 0;
#X connect 7 0 8 0;
#X connect 8 0 0 0;
#X connect 8 0 43 0;
#X connect 8 1 13 0;
#X connect 8 1 39 0;
#X connect 8 1 47 0;
#X connect 10 0 9 0;
#X connect 11 0 2 0;
#X connect 12 0 4 0;
#X connect 13 0 19 0;
#X connect 13 1 20 0;
#X connect 13 2 21 0;
#X connect 14 0 18 0;
#X connect 16 0 15 0;
#X connect 19 0 14 0;
#X connect 20 0 16 0;
#X connect 21 0 22 0;
#X connect 21 0 23 0;
#X connect 21 0 35 0;
#X connect 22 0 17 0;
#X connect 25 0 34 0;
#X connect 26 0 29 0;
#X connect 29 0 30 0;
#X connect 30 0 31 0;
#X connect 30 0 33 0;
#X connect 33 0 31 0;
#X connect 34 0 33 0;
#X connect 35 0 24 0;
#X connect 35 0 26 0;
#X connect 35 1 36 0;
#X connect 36 0 48 0;
#X connect 36 1 25 0;
#X connect 36 1 27 0;
#X connect 36 1 50 0;
#X connect 37 0 33 0;
#X connect 39 0 40 0;
#X connect 39 1 41 0;
#X connect 39 2 42 0;
#X connect 43 0 46 0;
#X connect 43 1 44 0;
#X connect 43 2 45 0;
#X connect 49 0 8 0;
#X connect 50 0 28 0;
#X restore 847 298 pd mapping;
#X obj 1028 542 tanh~;
#X connect 23 0 26 0;
#X connect 26 0 41 0;
#X connect 27 0 36 0;
#X connect 27 0 43 1;
#X connect 28 0 43 0;
#X connect 28 0 30 0;
#X connect 29 0 28 0;
#X connect 33 0 34 0;
#X connect 33 0 35 0;
#X connect 38 0 41 1;
#X connect 39 0 41 1;
#X connect 40 0 42 0;
#X connect 41 0 44 0;
#X connect 42 0 41 1;
#X connect 43 0 24 0;
#X connect 43 1 26 1;
#X connect 43 1 31 0;
#X connect 43 1 32 0;
#X connect 44 0 37 1;
#X connect 44 0 37 0;
