#N canvas 0 25 335 619 12;
#X obj 30 83 tgl 256 0 record record-in Record 128 128 0 24 -262144
-262144 -1 0 1;
#X obj 1069 268 cnv 15 340 80 empty empty gyro 20 12 0 14 -233017 -66577
0;
#X floatatom 1085 313 10 0 0 1 x gx -;
#X floatatom 1197 313 10 0 0 1 y gy -;
#X floatatom 1310 310 10 0 0 1 z gz -;
#X obj 28 20 tgl 30 0 rungyro empty run 7 15 0 10 -262144 -1 -1 0 1
;
#X obj 1053 57 tgl 30 0 updates updates-in updates 32 15 0 10 -262144
-1 -1 1 1;
#X obj 1274 55 bng 30 250 50 0 update empty update 32 15 0 10 -262144
-1 -1;
#X obj 1096 165 hradio 54 1 0 4 speed-out speed-in empty 0 -8 0 10
-262144 -1 -1 1;
#X text 1097 227 fastest;
#X text 1212 227 normal;
#X text 1164 227 fast;
#X text 1273 227 slow;
#X text 1051 101 the speed of gyroscope events & overall resource usage
;
#X text 1051 117 are dependent on the desired update speed;
#X text 1055 140 speed (default "normal") \, "fastest" is *intensive*
;
#X floatatom 1084 418 10 0 0 1 x ax -;
#X floatatom 1187 418 10 0 0 1 y ay -;
#X floatatom 1292 418 10 0 0 1 z az -;
#X obj 1067 376 tgl 30 0 runaccel empty run 7 15 0 10 -262144 -1 -1
0 1;
#X floatatom 1119 599 5 0 0 0 Play_Speed playspeed-in playspeed;
#X obj 698 649 r playspeed;
#X obj 452 232 s playspeed-in;
#X obj 252 18 tgl 32 0 dev dev-in Dev 5 16 0 10 -262144 -1 -1 0 1;
#X obj 525 72 r sensors;
#N canvas 0 25 714 368 OSC 0;
#X msg 405 119 listen 0;
#X obj 405 219 oscparse;
#X obj 405 176 netreceive -u -b;
#X msg 429 148 listen 8888;
#X obj 415 76 sel 0 1;
#X obj 422 304 outlet;
#X obj 413 36 inlet;
#X connect 0 0 2 0;
#X connect 1 0 5 0;
#X connect 2 0 1 0;
#X connect 3 0 2 0;
#X connect 4 0 0 0;
#X connect 4 1 3 0;
#X connect 6 0 4 0;
#X restore 454 74 pd OSC;
#X obj 455 40 tgl 15 0 empty empty empty 17 7 0 10 -262144 -1 -1 1
1;
#X obj 515 130 bng 15 250 50 0 empty empty empty 17 7 0 10 -262144
-1 -1;
#X obj 538 244 bng 15 250 50 0 empty empty empty 17 7 0 10 -262144
-1 -1;
#X obj 580 126 bng 15 250 50 0 empty empty empty 17 7 0 10 -262144
-1 -1;
#X obj 258 456 vsl 15 128 0 1 0 0 volume volume-in Volume 0 -9 0 10
-262144 -1 -1 12700 1;
#X obj 458 287 adc~;
#N canvas 555 25 828 943 audio 0;
#X obj 525 377 ali.sample-recorder my-buffer;
#X msg 724 352 record \$1;
#X floatatom 526 414 5 0 0 0 - - -;
#X text 575 415 recording length in msec;
#X obj 356 725 tabread~ my-buffer;
#X text 383 678 recording length in samples;
#X obj 355 640 phasor~;
#X obj 354 597 line~;
#X obj 354 512 *;
#X msg 352 561 \$1 10;
#X obj 355 682 *~;
#N canvas 0 25 688 592 length 0;
#X obj 337 90 inlet;
#X obj 329 270 * 44.1;
#X floatatom 334 327 5 0 0 0 - - -;
#X obj 239 219 / 1000;
#X obj 241 250 t b f;
#X msg 219 291 1;
#X obj 270 330 /;
#X obj 353 471 outlet;
#X obj 230 473 outlet;
#X connect 0 0 1 0;
#X connect 0 0 3 0;
#X connect 1 0 2 0;
#X connect 2 0 7 0;
#X connect 3 0 4 0;
#X connect 4 0 5 0;
#X connect 4 1 6 1;
#X connect 5 0 6 0;
#X connect 6 0 8 0;
#X restore 526 453 pd length;
#X text 386 509 phasor frequency for normal speed playback;
#X text 635 851 stop playback;
#X obj 356 857 outlet~;
#X obj 371 -7 inlet;
#X obj 523 133 inlet~;
#X obj 386 65 sel 0 1;
#X obj 454 801 ali.fade-in-out 30 30;
#X obj 454 768 tgl 15 0 empty empty empty 17 7 0 10 -262144 -1 -1 0
1;
#X obj 357 799 *~;
#X msg 462 243 0;
#X msg 565 856 0;
#X msg 386 388 0;
#X msg 341 388 1;
#X msg 138 290 1;
#X floatatom 343 473 5 0 0 0 - - -;
#X text 450 110 record on;
#X text 144 80 record off;
#X obj 392 24 tgl 15 0 empty empty empty 17 7 0 10 -262144 -1 -1 0
1;
#X obj 449 442 t b f;
#X obj 182 920 s play-in;
#X obj 67 49 inlet;
#X obj 556 257 ali.fade-in-out 30 30;
#X obj 556 224 tgl 15 0 empty empty empty 17 7 0 10 -262144 -1 -1 0
1;
#X obj 525 304 *~;
#X obj 415 135 t b b b;
#X obj 326 107 t b b b;
#X msg 472 188 1;
#X msg 414 265 1;
#X obj 67 390 spigot;
#X obj 139 345 tgl 15 0 empty empty empty 17 7 0 10 -262144 -1 -1 0
1;
#X obj 68 422 ali.slide 0.1 0.1;
#X msg 740 264 0;
#X obj 783 315 tgl 15 0 empty empty empty 17 7 0 10 -262144 -1 -1 0
1;
#X obj 209 287 r play;
#X obj 566 706 change;
#X connect 0 0 2 0;
#X connect 1 0 0 1;
#X connect 2 0 11 0;
#X connect 4 0 20 0;
#X connect 6 0 10 0;
#X connect 7 0 6 0;
#X connect 8 0 9 0;
#X connect 9 0 7 0;
#X connect 10 0 4 0;
#X connect 11 0 30 0;
#X connect 11 1 10 1;
#X connect 15 0 29 0;
#X connect 16 0 35 0;
#X connect 17 0 37 0;
#X connect 17 1 36 0;
#X connect 18 0 20 1;
#X connect 18 2 22 0;
#X connect 19 0 18 0;
#X connect 20 0 14 0;
#X connect 21 0 46 0;
#X connect 22 0 26 0;
#X connect 22 0 41 0;
#X connect 22 0 31 0;
#X connect 23 0 6 1;
#X connect 23 0 34 0;
#X connect 24 0 31 0;
#X connect 24 0 46 0;
#X connect 25 0 41 0;
#X connect 26 0 8 0;
#X connect 29 0 17 0;
#X connect 30 0 26 0;
#X connect 30 1 8 1;
#X connect 32 0 40 0;
#X connect 33 0 35 1;
#X connect 33 2 43 0;
#X connect 34 0 33 0;
#X connect 35 0 0 0;
#X connect 36 0 39 0;
#X connect 36 1 21 0;
#X connect 36 2 38 0;
#X connect 37 0 25 0;
#X connect 37 1 24 0;
#X connect 37 2 23 0;
#X connect 38 0 34 0;
#X connect 39 0 44 0;
#X connect 40 0 42 0;
#X connect 41 0 40 1;
#X connect 42 0 26 0;
#X connect 43 0 44 0;
#X connect 44 0 1 0;
#X connect 45 0 46 0;
#X connect 46 0 19 0;
#X restore 761 713 pd audio;
#X obj 843 687 tgl 15 0 empty empty empty 17 7 0 10 -262144 -1 -1 0
1;
#N canvas 12 144 636 769 record-play-logic 0;
#X obj 166 110 tgl 15 0 empty empty empty 17 7 0 10 -262144 -1 -1 0
1;
#X obj 166 180 sel 0 1;
#X obj 166 144 change;
#X obj 102 247 t b b;
#X msg 158 247 stop;
#X obj 218 357 t b b;
#X obj 102 302 spigot;
#X obj 160 284 tgl 15 0 empty empty empty 17 7 0 10 -262144 -1 -1 0
1;
#X msg 239 390 1;
#X obj 102 380 del 200;
#X obj 217 244 t b b;
#X msg 113 345 stop;
#X msg 220 419 1;
#X msg 102 419 0;
#X obj 165 28 inlet;
#X text 219 60 amp threshold;
#X obj 175 545 outlet;
#X obj 107 629 s record-in;
#X obj 217 307 del 100;
#X obj 178 494 change;
#X obj 108 525 sel 0;
#X msg 108 575 0;
#X obj 365 108 inlet;
#X obj 165 68 > 0.02;
#X obj 402 33 inlet;
#X connect 0 0 2 0;
#X connect 1 0 3 0;
#X connect 1 1 10 0;
#X connect 2 0 1 0;
#X connect 3 0 6 0;
#X connect 3 1 4 0;
#X connect 4 0 18 0;
#X connect 5 0 12 0;
#X connect 5 1 8 0;
#X connect 6 0 9 0;
#X connect 7 0 6 1;
#X connect 8 0 7 0;
#X connect 9 0 13 0;
#X connect 10 0 18 0;
#X connect 10 1 11 0;
#X connect 11 0 9 0;
#X connect 12 0 19 0;
#X connect 13 0 7 0;
#X connect 13 0 19 0;
#X connect 14 0 23 0;
#X connect 18 0 5 0;
#X connect 19 0 20 0;
#X connect 19 0 16 0;
#X connect 20 0 21 0;
#X connect 21 0 17 0;
#X connect 22 0 18 1;
#X connect 23 0 0 0;
#X connect 24 0 23 1;
#X restore 842 653 pd record-play-logic;
#X obj 458 328 +~;
#X obj 749 829 dac~;
#X obj 603 458 r record;
#X floatatom 981 431 4 0 999 0 - delay-in -;
#X obj 786 434 delwrite~ delay1 1000;
#X obj 459 551 *;
#X obj 459 622 ali.plot;
#X obj 435 661 vsl 15 128 0 1 0 0 empty ampthresh-in amp_thresh 0 -9
0 10 -262144 -1 -1 635 1;
#X obj 458 430 ali.slide 0.8 0.01;
#N canvas 0 25 450 300 env-fol 0;
#X obj 182 116 lop~;
#X obj 182 179 snapshot~;
#X obj 182 209 sqrt;
#X text 270 148 take snapshot;
#X text 228 208 convert to RMS;
#X text 227 116 low-pass filter;
#X obj 193 151 r \$0-tick;
#X text 270 164 every 1/4 second;
#X text 252 83 <= responsiveness;
#X floatatom 207 85 5 0 0 0 - lop-in -;
#X obj 263 254 outlet;
#X obj 182 45 inlet~;
#X connect 0 0 1 0;
#X connect 1 0 2 0;
#X connect 2 0 10 0;
#X connect 6 0 1 0;
#X connect 9 0 0 1;
#X connect 11 0 0 0;
#X restore 458 369 pd env-fol;
#X floatatom 456 816 5 0 0 0 - - -;
#X obj 37 442 tgl 50 0 play play-in Play 55 24 0 25 -24198 -24198 -1
0 1;
#X obj 788 510 delread~ delay1;
#X obj 603 566 s #osc-out;
#X obj 603 492 spigot;
#X obj 735 289 r dev;
#X obj 603 527 oscformat record;
#N canvas 972 229 554 793 startup 0;
#X obj 9 113 loadbang;
#X obj 9 137 bng 15 250 50 0 empty empty empty 0 -6 0 8 -262144 -1
-1;
#X obj 9 156 f \$0;
#X text 22 284 This subpatch loads initial;
#X text 25 302 values in number boxes.;
#X obj 210 245 s \$0-tick;
#X obj 210 221 metro 10;
#X obj 223 147 loadbang;
#X msg 224 173 1;
#X msg 9 180 \; lop-in 100 \; pd dsp 1;
#X obj 43 375 loadbang;
#X msg 44 417 \; dev-in 0 \; delay-in 300 \; ampthresh-in 0.05 \; volume-in
1;
#X connect 0 0 1 0;
#X connect 1 0 2 0;
#X connect 2 0 9 0;
#X connect 6 0 5 0;
#X connect 7 0 8 0;
#X connect 8 0 6 0;
#X connect 10 0 11 0;
#X restore 352 44 pd startup;
#N canvas 0 25 656 451 button 0;
#X obj 224 119 sel 0 1;
#X msg 198 209 color 0 0 22;
#X msg 250 160 color 13 13 22;
#X obj 218 48 r record;
#X obj 247 254 s record-in;
#X obj 418 121 sel 0 1;
#X msg 392 211 color 0 0 22;
#X obj 412 51 r play;
#X msg 444 161 color 16 16 22;
#X obj 440 256 s play-in;
#X connect 0 0 1 0;
#X connect 0 1 2 0;
#X connect 1 0 4 0;
#X connect 2 0 4 0;
#X connect 3 0 0 0;
#X connect 5 0 6 0;
#X connect 5 1 8 0;
#X connect 6 0 9 0;
#X connect 7 0 5 0;
#X connect 8 0 9 0;
#X restore 354 73 pd button;
#N canvas 67 25 1423 943 sensor-mapping 0;
#X obj 187 61 inlet;
#X obj 187 117 route list;
#X obj 577 76 unpack 1 1 1;
#X obj 582 299 ali.scale -1 1 0 127;
#X obj 618 427 vsl 15 128 0 127 0 0 empty empty empty 0 -9 0 10 -262144
-1 -1 6704 1;
#X obj 619 328 ali.scale -1 1 0 127;
#X obj 640 426 vsl 15 128 0 127 0 0 empty empty empty 0 -9 0 10 -262144
-1 -1 6343 1;
#X obj 597 426 vsl 15 128 0 127 0 0 empty empty empty 0 -9 0 10 -262144
-1 -1 6348 1;
#X obj 580 213 ali.slide 0.3 0.3;
#X obj 619 238 ali.slide 0.3 0.3;
#X obj 664 351 ali.scale -10 10 0 127;
#X floatatom 694 425 5 0 0 0 - - -;
#X obj 1599 625 bng 15 250 50 0 empty empty empty 17 7 0 10 -262144
-1 -1;
#X floatatom 1552 623 5 0 0 0 - - -;
#X obj 1094 906 outlet;
#X text 1668 766 play speed;
#X obj 1494 513 moses -0.2;
#X obj 1567 546 moses 0.2;
#X obj 258 349 unpack f f f;
#X obj 258 378 s gx;
#X obj 292 378 s gy;
#X obj 327 379 s gz;
#X obj 40 58 unpack f f f;
#X obj 74 87 s ay;
#X obj 109 87 s az;
#X obj 40 87 s ax;
#X obj 225 294 bng 15 250 50 0 empty empty empty 17 7 0 10 -262144
-1 -1;
#X obj 1530 590 bng 15 250 50 0 empty empty empty 17 7 0 10 -262144
-1 -1;
#X obj 296 65 inlet;
#X obj 1721 676 ali.scale 0.2 8 0.01 3;
#X obj 186 171 route accxyz gyro record;
#X obj 392 347 s record-in;
#X obj 1497 669 ali.scale -0.2 -8 -0.01 -3;
#X floatatom 1725 732 5 0 0 0 - - -;
#X floatatom 1559 728 5 0 0 0 - - -;
#X floatatom 1694 600 5 0 0 0 - - -;
#X floatatom 1436 595 5 0 0 0 - - -;
#X obj 789 411 * -1;
#X obj 1046 611 tabread4 gyro-mapping;
#X obj 248 1089 tabwrite gyro-mapping;
#X obj 263 665 bng 15 250 50 0 empty empty empty 17 7 0 10 -262144
-1 -1;
#X obj 264 707 ali.uzi 100;
#X obj 336 753 - 1;
#X obj 390 797 moses 25;
#X obj 381 861 bng 15 250 50 0 empty empty empty 17 7 0 10 -262144
-1 -1;
#X obj 498 880 bng 15 250 50 0 empty empty empty 17 7 0 10 -262144
-1 -1;
#X obj 789 855 bng 15 250 50 0 empty empty empty 17 7 0 10 -262144
-1 -1;
#X obj 860 862 bng 15 250 50 0 empty empty empty 17 7 0 10 -262144
-1 -1;
#X obj 265 862 t f f;
#X obj 1088 677 hsl 128 15 -4 4 0 0 empty empty empty -2 -8 0 10 -262144
-1 -1 6276 1;
#X obj 1086 491 hsl 128 15 0 99 0 0 empty empty empty -2 -8 0 10 -262144
-1 -1 12700 1;
#X msg 756 963 1;
#X msg 478 961 -1;
#X obj 510 794 moses 40;
#X obj 603 791 moses 60;
#X obj 567 966 ali.scale 40 60 -1 1;
#X obj 795 787 moses 75;
#X obj 1285 297;
#X text 294 643 This array is made in two steps and saved with the
patch: 1) run this for loop 2) manually smooth the tarnsitions;
#X obj 1048 409 ali.scale -15 15 0 99;
#X obj 670 265 ali.slide 0.2 0.2;
#X obj 1082 569 array define -yrange -20 20 -k gyro-mapping;
#A 0 -20.1333 -17.6 -15.0667 -13.0667 -11.7333 -10.5333 -9.59999 -8.53333
-7.73333 -7.06666 -6.4 -5.6 -5.06666 -4.4 -3.86666 -3.46667 -2.93333
-2.66667 -2.26667 -2 -1.86667 -1.6 -1.46667 -1.33333 -1.2 -1.06667
-1 -1 -1 -1 -1 -1 -1 -1 -1 -1 -1 -1 -1 -1 -1 -0.9 -0.8 -0.7 -0.6 -0.5
-0.4 -0.3 -0.2 -0.1 0 0.1 0.2 0.3 0.4 0.5 0.6 0.7 0.8 0.9 1 1 1 1 1
1 1 1 1 1 1 1 0.933334 1.06667 1.33333 1.6 1.86667 2 2.26667 2.53333
2.93333 3.33333 3.73333 4.13333 4.66666 5.2 6 6.53333 7.33333 8.13333
8.66666 9.73333 10.6667 12 13.2 14.5333 15.8667 17.3333 18.8 20;
#X msg 373 953 -20;
#X msg 866 982 20;
#X connect 0 0 1 0;
#X connect 1 0 30 0;
#X connect 2 0 8 0;
#X connect 2 1 9 0;
#X connect 2 2 60 0;
#X connect 3 0 7 0;
#X connect 5 0 4 0;
#X connect 8 0 3 0;
#X connect 9 0 5 0;
#X connect 10 0 6 0;
#X connect 16 0 32 0;
#X connect 16 0 36 0;
#X connect 16 1 17 0;
#X connect 17 0 27 0;
#X connect 17 1 12 0;
#X connect 17 1 13 0;
#X connect 17 1 29 0;
#X connect 17 1 35 0;
#X connect 18 0 19 0;
#X connect 18 1 20 0;
#X connect 18 2 21 0;
#X connect 22 0 25 0;
#X connect 22 1 23 0;
#X connect 22 2 24 0;
#X connect 28 0 30 0;
#X connect 29 0 14 0;
#X connect 29 0 33 0;
#X connect 30 0 22 0;
#X connect 30 1 2 0;
#X connect 30 1 18 0;
#X connect 30 1 26 0;
#X connect 30 2 31 0;
#X connect 32 0 14 0;
#X connect 32 0 34 0;
#X connect 37 0 59 0;
#X connect 38 0 49 0;
#X connect 38 0 14 0;
#X connect 40 0 41 0;
#X connect 41 2 42 0;
#X connect 42 0 48 0;
#X connect 43 0 44 0;
#X connect 43 1 53 0;
#X connect 44 0 62 0;
#X connect 45 0 52 0;
#X connect 46 0 51 0;
#X connect 47 0 63 0;
#X connect 48 0 43 0;
#X connect 48 1 39 1;
#X connect 50 0 38 0;
#X connect 51 0 39 0;
#X connect 52 0 39 0;
#X connect 53 0 45 0;
#X connect 53 1 54 0;
#X connect 54 0 55 0;
#X connect 54 1 56 0;
#X connect 55 0 39 0;
#X connect 56 0 46 0;
#X connect 56 1 47 0;
#X connect 59 0 38 0;
#X connect 60 0 10 0;
#X connect 60 0 11 0;
#X connect 60 0 37 0;
#X connect 62 0 39 0;
#X connect 63 0 39 0;
#X restore 453 158 pd sensor-mapping;
#N canvas 442 291 881 421 gyro 0;
#X obj 461 28 r #gyro;
#X obj 173 27 r rungyro;
#X msg 173 58 gyro \$1;
#X obj 266 97 s #pdparty;
#X obj 382 28 r update;
#X obj 39 164 loadbang;
#X obj 266 222 s #pdparty;
#N canvas 651 529 253 199 type 0;
#X obj 16 9 inlet;
#X obj 16 133 symbol;
#X obj 16 167 outlet;
#X msg 16 84 fastest;
#X msg 83 84 fast;
#X msg 132 83 normal;
#X msg 191 83 slow;
#X obj 16 38 sel 0 1 2 3;
#X connect 0 0 7 0;
#X connect 1 0 2 0;
#X connect 3 0 1 0;
#X connect 4 0 1 0;
#X connect 5 0 1 0;
#X connect 6 0 1 0;
#X connect 7 0 3 0;
#X connect 7 1 4 0;
#X connect 7 2 5 0;
#X connect 7 3 6 0;
#X restore 266 163 pd type;
#X obj 266 131 r speed-out;
#X msg 266 193 gyro speed \$1;
#X obj 266 28 r updates;
#X msg 266 59 gyro updates \$1;
#X msg 39 196 \; updates-in set 1 \; speed-in set 1;
#X msg 382 60 gyro;
#X obj 474 240 s #osc-out;
#X obj 449 179 oscformat gyro;
#X msg 446 81 \$1 \$2 \$3;
#X obj 449 136 spigot;
#X obj 545 102 tgl 15 0 empty empty empty 17 7 0 10 -262144 -1 -1 0
1;
#X obj 578 22 r dev;
#X obj 645 82 == 0;
#X obj 573 135 spigot;
#X obj 608 107 tgl 15 0 empty empty empty 17 7 0 10 -262144 -1 -1 1
1;
#X msg 591 173 gyro \$1 \$2 \$3;
#X obj 594 236 s sensors;
#X obj 527 67 bng 15 250 50 0 empty empty empty 17 7 0 10 -262144 -1
-1;
#X obj 344 304 unpack f f f;
#X obj 344 333 s gx;
#X obj 378 333 s gy;
#X obj 413 334 s gz;
#X connect 0 0 16 0;
#X connect 0 0 25 0;
#X connect 1 0 2 0;
#X connect 2 0 3 0;
#X connect 4 0 13 0;
#X connect 5 0 12 0;
#X connect 7 0 9 0;
#X connect 8 0 7 0;
#X connect 9 0 6 0;
#X connect 10 0 11 0;
#X connect 11 0 3 0;
#X connect 13 0 3 0;
#X connect 15 0 14 0;
#X connect 16 0 17 0;
#X connect 16 0 21 0;
#X connect 17 0 15 0;
#X connect 17 0 26 0;
#X connect 18 0 17 1;
#X connect 19 0 20 0;
#X connect 19 0 18 0;
#X connect 20 0 22 0;
#X connect 21 0 23 0;
#X connect 22 0 21 1;
#X connect 23 0 24 0;
#X connect 26 0 27 0;
#X connect 26 1 28 0;
#X connect 26 2 29 0;
#X restore 1359 277 pd gyro;
#N canvas 442 619 791 380 accel 0;
#X obj 40 28 r #accelerate;
#X obj 39 164 loadbang;
#N canvas 651 529 253 199 type 0;
#X obj 16 9 inlet;
#X obj 16 133 symbol;
#X obj 16 167 outlet;
#X msg 16 84 fastest;
#X msg 83 84 fast;
#X msg 132 83 normal;
#X msg 191 83 slow;
#X obj 16 38 sel 0 1 2 3;
#X connect 0 0 7 0;
#X connect 1 0 2 0;
#X connect 3 0 1 0;
#X connect 4 0 1 0;
#X connect 5 0 1 0;
#X connect 6 0 1 0;
#X connect 7 0 3 0;
#X connect 7 1 4 0;
#X connect 7 2 5 0;
#X connect 7 3 6 0;
#X restore 297 59 pd type;
#X obj 297 27 r speed-out;
#X obj 173 27 r runaccel;
#X msg 173 58 accelerate \$1;
#X msg 297 89 accelerate speed \$1;
#X obj 173 123 s #pdparty;
#X msg 39 196 \; speed-in set 1;
#X obj 310 343 s #osc-out;
#X obj 311 310 oscformat accxyz;
#X msg 309 123 \$1 \$2 \$3;
#X msg 511 255 accxyz \$1 \$2 \$3;
#X obj 340 204 spigot;
#X obj 377 172 tgl 15 0 empty empty empty 17 7 0 10 -262144 -1 -1 0
1;
#X obj 475 88 r dev;
#X obj 499 127 == 0;
#X obj 462 207 spigot;
#X obj 499 175 tgl 15 0 empty empty empty 17 7 0 10 -262144 -1 -1 1
1;
#X obj 516 313 s sensors;
#X connect 0 0 11 0;
#X connect 1 0 8 0;
#X connect 2 0 6 0;
#X connect 3 0 2 0;
#X connect 4 0 5 0;
#X connect 5 0 7 0;
#X connect 6 0 7 0;
#X connect 10 0 9 0;
#X connect 11 0 13 0;
#X connect 11 0 17 0;
#X connect 12 0 19 0;
#X connect 13 0 10 0;
#X connect 14 0 13 1;
#X connect 15 0 16 0;
#X connect 15 0 14 0;
#X connect 16 0 18 0;
#X connect 17 0 12 0;
#X connect 18 0 17 1;
#X restore 1353 378 pd accel;
#X obj 954 724 r volume;
#X obj 867 784 line~;
#X msg 869 748 \$1 22;
#X obj 760 790 *~ 1;
#X connect 21 0 32 0;
#X connect 24 0 29 0;
#X connect 24 0 54 1;
#X connect 25 0 54 0;
#X connect 25 0 27 0;
#X connect 26 0 25 0;
#X connect 31 0 35 0;
#X connect 31 1 35 0;
#X connect 32 0 60 0;
#X connect 33 0 32 1;
#X connect 34 0 33 0;
#X connect 35 0 39 0;
#X connect 35 0 44 0;
#X connect 37 0 40 1;
#X connect 37 0 49 0;
#X connect 38 0 34 1;
#X connect 38 0 47 0;
#X connect 40 0 34 0;
#X connect 40 0 41 0;
#X connect 42 0 45 0;
#X connect 43 0 40 0;
#X connect 44 0 43 0;
#X connect 45 0 34 2;
#X connect 47 0 32 2;
#X connect 49 0 51 0;
#X connect 50 0 49 1;
#X connect 51 0 48 0;
#X connect 54 0 22 0;
#X connect 57 0 59 0;
#X connect 58 0 60 0;
#X connect 59 0 58 0;
#X connect 60 0 36 1;
#X connect 60 0 36 0;
