#N canvas 372 44 1090 890 12;
#N canvas 972 346 382 265 startup 0;
#X obj 44 28 loadbang;
#X obj 44 52 bng 15 250 50 0 empty empty empty 0 -6 0 8 -262144 -1
-1;
#X obj 44 71 f \$0;
#X text 57 199 This subpatch loads initial;
#X text 60 217 values in number boxes.;
#X obj 245 160 s \$0-tick;
#X obj 245 136 metro 10;
#X obj 258 62 loadbang;
#X msg 259 88 1;
#X msg 44 95 \; lop-in 100 \; pd dsp 1;
#X connect 0 0 1 0;
#X connect 1 0 2 0;
#X connect 2 0 9 0;
#X connect 6 0 5 0;
#X connect 7 0 8 0;
#X connect 8 0 6 0;
#X restore 317 151 pd startup;
#X obj 558 19 adc~;
#N canvas 389 154 1101 769 audio 0;
#X obj 398 168 ali.sample-recorder my-buffer;
#X msg 598 132 record \$1;
#X floatatom 399 205 5 0 0 0 - - -;
#X text 448 206 recording length in msec;
#X floatatom 520 437 5 0 0 0 - - -;
#X obj 519 402 ali.slide 0.1 0.1;
#X obj 229 516 tabread~ my-buffer;
#X text 256 469 recording length in samples;
#X obj 228 431 phasor~;
#X obj 227 388 line~;
#X obj 227 303 *;
#X msg 225 352 \$1 10;
#X obj 228 473 *~;
#N canvas 0 25 688 592 length 0;
#X obj 337 90 inlet;
#X obj 329 270 * 44.1;
#X floatatom 334 327 5 0 0 0 - - -;
#X obj 239 219 / 1000;
#X obj 241 250 t b f;
#X msg 219 291 1;
#X obj 270 330 /;
#X obj 353 471 outlet;
#X obj 230 473 outlet;
#X connect 0 0 1 0;
#X connect 0 0 3 0;
#X connect 1 0 2 0;
#X connect 2 0 7 0;
#X connect 3 0 4 0;
#X connect 4 0 5 0;
#X connect 4 1 6 1;
#X connect 5 0 6 0;
#X connect 6 0 8 0;
#X restore 399 244 pd length;
#X text 259 300 phasor frequency for normal speed playback;
#X floatatom 587 471 5 0 0 0 - - -;
#X text 587 449 turn-rate modifier;
#X text 508 642 stop playback;
#X text 523 504 playback speed;
#X obj 519 476 / 1;
#X obj 229 648 outlet~;
#X obj 597 9 inlet;
#X obj 397 127 inlet~;
#X obj 260 61 sel 0 1;
#X obj 327 592 ali.fade-in-out 30 30;
#X obj 327 559 tgl 15 0 empty empty empty 17 7 0 10 -262144 -1 -1 1
1;
#X obj 230 590 *~;
#X msg 292 105 0;
#X msg 471 642 0;
#X msg 253 179 0;
#X obj 200 103 t b b 0;
#X msg 214 179 1;
#X msg 181 180 1;
#X floatatom 183 259 5 0 0 0 - - -;
#X text 324 106 record on;
#X text 144 80 record off;
#X obj 598 68 tgl 15 0 empty empty empty 17 7 0 10 -262144 -1 -1 0
1;
#X obj 699 284 r record;
#X msg 699 361 0;
#X obj 699 316 sel 1;
#X obj 322 233 t b f;
#X obj 131 468 s play-in;
#X obj 70 369 > 0;
#X obj 77 163 r play;
#X obj 76 208 t b f b;
#X obj 136 424 spigot;
#X msg 180 326 0;
#X msg 117 324 1;
#X obj 74 282 loadbang;
#X obj 98 100 inlet;
#X connect 0 0 2 0;
#X connect 1 0 0 1;
#X connect 2 0 13 0;
#X connect 4 0 19 0;
#X connect 5 0 4 0;
#X connect 6 0 26 0;
#X connect 8 0 12 0;
#X connect 9 0 8 0;
#X connect 10 0 11 0;
#X connect 11 0 9 0;
#X connect 12 0 6 0;
#X connect 13 0 40 0;
#X connect 13 1 12 1;
#X connect 15 0 19 1;
#X connect 21 0 23 0;
#X connect 21 0 36 0;
#X connect 22 0 0 0;
#X connect 23 0 30 0;
#X connect 23 1 27 0;
#X connect 24 0 26 1;
#X connect 24 2 28 0;
#X connect 25 0 24 0;
#X connect 26 0 20 0;
#X connect 27 0 25 0;
#X connect 28 0 33 0;
#X connect 29 0 8 1;
#X connect 30 0 32 0;
#X connect 30 1 31 0;
#X connect 30 2 29 0;
#X connect 31 0 25 0;
#X connect 32 0 33 0;
#X connect 33 0 10 0;
#X connect 33 0 42 0;
#X connect 36 0 1 0;
#X connect 37 0 39 0;
#X connect 38 0 25 0;
#X connect 39 0 38 0;
#X connect 40 0 33 0;
#X connect 40 1 10 1;
#X connect 42 0 45 0;
#X connect 43 0 44 0;
#X connect 44 0 47 0;
#X connect 44 1 33 0;
#X connect 44 2 46 0;
#X connect 45 0 41 0;
#X connect 46 0 45 1;
#X connect 47 0 45 1;
#X connect 48 0 47 0;
#X connect 49 0 33 0;
#X restore 888 587 pd audio;
#X obj 943 546 tgl 15 0 empty empty empty 17 7 0 10 -262144 -1 -1 0
1;
#N canvas 12 144 636 769 record-play-logic 0;
#X obj 166 110 tgl 15 0 empty empty empty 17 7 0 10 -262144 -1 -1 0
1;
#X obj 166 180 sel 0 1;
#X obj 166 144 change;
#X obj 102 247 t b b;
#X msg 158 247 stop;
#X obj 218 357 t b b;
#X obj 102 302 spigot;
#X obj 160 284 tgl 15 0 empty empty empty 17 7 0 10 -262144 -1 -1 0
1;
#X msg 239 390 1;
#X obj 102 380 del 200;
#X obj 217 244 t b b;
#X msg 113 345 stop;
#X msg 220 419 1;
#X msg 102 419 0;
#X obj 165 28 inlet;
#X text 219 60 amp threshold;
#X obj 175 545 outlet;
#X obj 107 629 s record-in;
#X obj 217 307 del 100;
#X obj 178 494 change;
#X obj 108 525 sel 0;
#X msg 108 575 0;
#X obj 365 108 inlet;
#X obj 165 68 > 0.02;
#X connect 0 0 2 0;
#X connect 1 0 3 0;
#X connect 1 1 10 0;
#X connect 2 0 1 0;
#X connect 3 0 6 0;
#X connect 3 1 4 0;
#X connect 4 0 18 0;
#X connect 5 0 12 0;
#X connect 5 1 8 0;
#X connect 6 0 9 0;
#X connect 7 0 6 1;
#X connect 8 0 7 0;
#X connect 9 0 13 0;
#X connect 10 0 18 0;
#X connect 10 1 11 0;
#X connect 11 0 9 0;
#X connect 12 0 19 0;
#X connect 13 0 7 0;
#X connect 13 0 19 0;
#X connect 14 0 23 0;
#X connect 18 0 5 0;
#X connect 19 0 20 0;
#X connect 19 0 16 0;
#X connect 20 0 21 0;
#X connect 21 0 17 0;
#X connect 22 0 18 1;
#X connect 23 0 0 0;
#X restore 942 512 pd record-play-logic;
#X obj 59 87 tgl 50 0 record record-in Record 55 24 0 25 -262144 -262144
-1 0 1;
#X obj 558 107 +~;
#N canvas 0 25 656 451 button 0;
#X obj 224 119 sel 0 1;
#X msg 198 209 color 0 0 22;
#X msg 250 160 color 13 13 22;
#X obj 218 48 r record;
#X obj 247 254 s record-in;
#X obj 418 121 sel 0 1;
#X msg 392 211 color 0 0 22;
#X obj 412 51 r play;
#X msg 444 161 color 16 16 22;
#X obj 440 256 s play-in;
#X connect 0 0 1 0;
#X connect 0 1 2 0;
#X connect 1 0 4 0;
#X connect 2 0 4 0;
#X connect 3 0 0 0;
#X connect 5 0 6 0;
#X connect 5 1 8 0;
#X connect 6 0 9 0;
#X connect 7 0 5 0;
#X connect 8 0 9 0;
#X restore 317 105 pd button;
#X obj 889 689 dac~;
#X obj 726 410 r record;
#X floatatom 994 296 4 0 999 0 - - -;
#X obj 885 356 delread~ delay1;
#X obj 878 215 delwrite~ delay1 1000;
#X obj 682 460 *;
#X obj 634 685 ali.plot;
#X obj 611 717 vsl 15 128 0 127 0 0 empty empty empty 0 -9 0 10 -262144
-1 -1 0 1;
#X obj 559 397 ali.slide 0.8 0.01;
#X obj 59 212 tgl 50 0 play play-in Play 55 24 0 25 -262144 -262144
-1 0 1;
#N canvas 0 25 450 300 env-fol 0;
#X obj 182 116 lop~;
#X obj 182 179 snapshot~;
#X obj 182 209 sqrt;
#X text 270 148 take snapshot;
#X text 228 208 convert to RMS;
#X text 227 116 low-pass filter;
#X obj 193 151 r \$0-tick;
#X text 270 164 every 1/4 second;
#X text 252 83 <= responsiveness;
#X floatatom 207 85 5 0 0 0 - lop-in -;
#X obj 263 254 outlet;
#X obj 182 45 inlet~;
#X connect 0 0 1 0;
#X connect 1 0 2 0;
#X connect 2 0 10 0;
#X connect 6 0 1 0;
#X connect 9 0 0 1;
#X connect 11 0 0 0;
#X restore 556 229 pd env-fol;
#X floatatom 590 310 5 0 0 0 - - -;
#X connect 1 0 6 0;
#X connect 1 1 6 0;
#X connect 2 0 8 0;
#X connect 2 0 8 1;
#X connect 3 0 2 2;
#X connect 4 0 3 0;
#X connect 6 0 12 0;
#X connect 6 0 18 0;
#X connect 9 0 13 1;
#X connect 10 0 11 0;
#X connect 10 0 4 1;
#X connect 11 0 2 1;
#X connect 13 0 4 0;
#X connect 13 0 14 0;
#X connect 16 0 13 0;
#X connect 18 0 16 0;
#X connect 18 0 19 0;
